<?xml version="1.0" encoding="UTF-8" standalone="no"?>
<!-- Created with Inkscape (http://www.inkscape.org/) -->

<svg
   width="153.75249mm"
   height="44.548931mm"
   viewBox="0 0 153.75249 44.548931"
   version="1.1"
   id="svg1"
   inkscape:version="1.4.3 (0d15f75042, 2025-12-25)"
   sodipodi:docname="cloudless-computer-sun-logo-dark.svg"
   xmlns:inkscape="http://www.inkscape.org/namespaces/inkscape"
   xmlns:sodipodi="http://sodipodi.sourceforge.net/DTD/sodipodi-0.dtd"
   xmlns="http://www.w3.org/2000/svg"
   xmlns:svg="http://www.w3.org/2000/svg">
  <sodipodi:namedview
     id="namedview1"
     pagecolor="#ffffff"
     bordercolor="#000000"
     borderopacity="0.25"
     inkscape:showpageshadow="2"
     inkscape:pageopacity="0.0"
     inkscape:pagecheckerboard="true"
     inkscape:deskcolor="#d1d1d1"
     inkscape:document-units="mm"
     inkscape:zoom="2.5068603"
     inkscape:cx="229.37058"
     inkscape:cy="54.051676"
     inkscape:window-width="3072"
     inkscape:window-height="1658"
     inkscape:window-x="0"
     inkscape:window-y="0"
     inkscape:window-maximized="1"
     inkscape:current-layer="layer1" />
  <defs
     id="defs1">
    <inkscape:path-effect
       effect="offset"
       id="path-effect30-9-5"
       is_visible="true"
       lpeversion="1.3"
       linejoin_type="miter"
       unit="mm"
       offset="0.3"
       miter_limit="4"
       attempt_force_join="false"
       update_on_knot_move="true" />
  </defs>
  <g
     inkscape:label="Layer 1"
     inkscape:groupmode="layer"
     id="layer1"
     transform="translate(-49.741681,-75.670756)">
    <text
       xml:space="preserve"
       style="font-weight:bold;font-size:25.4px;line-height:0.8;font-family:'DejaVu Sans';-inkscape-font-specification:'DejaVu Sans Bold';writing-mode:lr-tb;direction:ltr;fill:#fecf65;fill-opacity:1;stroke-width:0.264583"
       x="98.037041"
       y="94.081039"
       id="text5-5-3-1-2-0"><tspan
         sodipodi:role="line"
         id="tspan5-9-1-9-0-5"
         style="font-style:normal;font-variant:normal;font-weight:normal;font-stretch:normal;font-size:25.4px;line-height:0.8;font-family:'Liberation Sans';-inkscape-font-specification:'Liberation Sans';fill:#000000;fill-opacity:1;stroke-width:0.264583"
         x="98.037041"
         y="94.081039">cloudless</tspan><tspan
         sodipodi:role="line"
         style="font-style:normal;font-variant:normal;font-weight:normal;font-stretch:normal;font-size:25.4px;line-height:0.8;font-family:'Liberation Sans';-inkscape-font-specification:'Liberation Sans';fill:#000000;fill-opacity:1;stroke-width:0.264583"
         x="98.037041"
         y="114.80715"
         id="tspan6-8-8-9-1-6">computer</tspan></text>
    <path
       style="fill:#fdc11b;fill-opacity:1;stroke-width:0.0565838"
       d="m 48.384766,651.28516 c -0.04647,-0.001 -0.09355,6.5e-4 -0.140625,0.004 -0.223745,0.0155 -0.43826,0.0807 -0.648438,0.19141 -0.623933,0.32871 -0.998267,0.8756 -1.001953,1.5293 -0.0019,0.3552 0.03883,0.49102 0.332031,1.0332 0.07872,0.14559 0.148833,0.29363 0.197266,0.41015 0.02851,0.0686 0.04928,0.12748 0.05859,0.16016 v 0.002 c 0,0 0,0.002 0,0.002 -0.0047,0.0212 -0.01103,0.0494 -0.01953,0.084 -0.02125,0.0865 -0.05459,0.21029 -0.0957,0.36524 -0.08223,0.3099 -0.200326,0.7437 -0.34375,1.25976 -0.191232,0.68809 -0.427581,1.52443 -0.68164,2.41211 -0.615985,2.15222 -1.233425,4.34184 -1.333985,4.73438 -0.07702,0.30077 -0.145021,0.53563 -0.138672,0.75586 0.0099,0.3441 0.193613,0.6174 0.53711,1.1875 0.160385,0.2662 0.280591,0.46895 0.359375,0.625 0.07878,0.15604 0.113947,0.26221 0.125,0.33593 0.02211,0.14744 -0.02378,0.25261 -0.210938,0.58399 -0.203374,0.36009 -0.344559,0.56497 -0.498047,0.70703 -0.153488,0.14206 -0.334059,0.24071 -0.658203,0.37109 -0.369526,0.14865 -0.608762,0.22725 -0.705078,0.23828 -0.01156,0.001 -0.02231,0.002 -0.0293,0.002 h -0.002 c -0.0027,-0.004 -0.0058,-0.01 -0.0098,-0.0176 -0.01684,-0.0322 -0.03988,-0.0935 -0.06641,-0.17578 0.0022,-0.0152 -0.01006,-0.14537 -0.01172,-0.17383 -0.0076,-0.13009 -0.01639,-0.31297 -0.02344,-0.5332 -0.02115,-0.66071 -0.03837,-1.66706 -0.04883,-2.72461 -0.01743,-1.76259 -0.01505,-3.68021 0.01758,-4.35352 l 0.03516,-0.69922 0.330078,-0.30859 c 0.556299,-0.51992 0.649063,-0.7544 0.615235,-1.5 -0.02121,-0.46716 -0.06116,-0.59755 -0.251953,-0.86328 -0.33323,-0.46408 -0.708025,-0.69332 -1.230469,-0.72657 -0.547764,-0.0349 -1.023183,0.11791 -1.386719,0.47071 -0.734261,0.71264 -0.776537,1.62279 -0.109375,2.40429 0.07547,0.0884 0.159116,0.19776 0.21875,0.28516 0.03976,0.0583 0.07163,0.11355 0.07422,0.11914 0.0076,0.0164 0.04079,0.12361 0.06836,0.26953 0.04136,0.21889 0.08273,0.53871 0.119141,0.92188 0.09102,0.95792 0.152671,2.3168 0.152344,3.62695 -1.02e-4,0.53443 -0.0036,0.87961 -0.01563,1.08008 -0.180902,-0.0929 -0.442751,-0.2378 -0.679688,-0.37891 -0.279976,-0.16673 -0.553189,-0.34923 -0.615234,-0.40234 -0.07736,-0.0662 -0.104685,-0.0958 -0.144532,-0.16797 -0.03985,-0.0722 -0.08834,-0.19586 -0.158203,-0.4082 -0.323749,-0.9839 -2.395961,-8.02822 -2.599609,-8.83203 -0.07208,-0.28447 -0.104907,-0.49923 -0.105469,-0.64649 -5.62e-4,-0.14725 0.02609,-0.21569 0.05469,-0.25586 0.534175,-0.75023 0.519313,-1.58567 -0.04102,-2.32031 -0.432079,-0.5665 -1.383063,-0.78021 -2.017578,-0.45313 -0.54586,0.28141 -1.031888,0.94693 -1.033203,1.5293 -0.0021,0.78468 0.562462,1.55129 1.310547,1.78711 0.106097,0.0334 0.179128,0.0515 0.21289,0.0644 0.02532,0.01 0.02954,0.0131 0.04102,0.0234 0.01148,0.0104 0.03283,0.0338 0.06445,0.0898 0.06325,0.11209 0.156807,0.34504 0.287109,0.75 0.195455,0.60743 0.482172,1.60222 0.955079,3.2207 1.075426,3.68057 1.701086,5.78605 1.851562,6.17969 l 0.152344,0.39843 1.175781,0.64649 c 0.352507,0.19407 0.692026,0.39076 0.921875,0.53125 0.09194,0.0562 0.167973,0.10287 0.214844,0.13476 0.01562,0.0106 0.0472,0.035 0.04102,0.0293 0.02981,0.0273 0.04154,0.0387 0.04687,0.0469 0.003,0.006 0.0053,0.0122 0.0098,0.0254 0.01185,0.0351 0.02917,0.13533 0.04687,0.32421 0.0203,0.21668 0.01169,0.64659 -0.02148,1.06446 -0.03317,0.41787 -0.09313,0.84203 -0.146485,1.04687 -0.04682,0.17977 -0.08738,0.26619 -0.113281,0.29883 -0.0259,0.0326 -0.04604,0.0496 -0.158203,0.0859 -0.39096,0.12658 -0.939013,0.42915 -1.490234,0.80273 -0.150017,0.10168 -0.275875,0.17817 -0.371094,0.23047 0.0025,-0.0253 0.0067,-0.0507 0.0098,-0.0781 0.02527,-0.22711 0.0655,-0.55481 0.111329,-0.88868 0.162147,-1.18082 0.196892,-1.63236 0.01953,-1.97851 -0.0775,-0.15126 -0.74048,-1.26026 -1.189453,-2.00781 -0.797706,-1.32819 -1.187266,-1.98 -1.328125,-2.32032 -0.07043,-0.17015 -0.08002,-0.24247 -0.07422,-0.31054 0.0058,-0.0681 0.03923,-0.16187 0.09766,-0.32813 0.320711,-0.91246 0.01746,-1.81114 -0.794922,-2.23242 -0.414282,-0.21449 -1.229624,-0.22122 -1.640625,-0.002 -0.610438,0.32567 -0.98389,0.96509 -0.894531,1.61718 0.128101,0.9346 0.473016,1.31304 1.542969,1.69141 0.251276,0.0889 0.57065,0.35496 0.988281,0.9082 0.289262,0.38319 0.461292,0.68205 0.519531,0.85743 0.02515,0.0757 0.02801,0.12206 0.02734,0.14062 -0.01055,0.004 -0.03155,0.0107 -0.05859,0.0156 -0.04849,0.009 -0.116702,0.0137 -0.193359,0.0137 -0.22997,-1.8e-4 -0.538878,-0.0612 -0.681641,-0.13086 -0.0269,-0.0131 -0.106077,-0.0628 -0.208984,-0.14258 -0.154361,-0.11967 -0.370795,-0.30703 -0.640625,-0.55664 -0.674574,-0.62404 -1.68907,-1.64047 -3.037109,-3.04297 -1.086514,-1.1304 -2.204362,-2.29105 -2.478516,-2.57422 l -0.410156,-0.42383 v -0.39648 c 0,-0.72163 -0.08633,-1.11524 -0.367188,-1.5 -0.237043,-0.32471 -0.87643,-0.73828 -1.291015,-0.73828 -0.754618,0 -1.520617,0.58741 -1.732422,1.3164 -0.09787,0.33666 -0.10408,0.47714 -0.03516,0.78516 0.112905,0.5045 0.437293,0.94542 0.884766,1.19922 0.337376,0.19177 0.418246,0.21513 1.070313,0.21289 l 0.484375,-0.002 1.333984,1.38086 c 0.782816,0.81039 2.162964,2.23819 3.066406,3.17187 0.903418,0.93366 1.851782,1.9134 2.107422,2.17774 l 0.552734,0.57226 h 1.3125 1.06836 l 0.06445,0.0605 c -0.0058,-0.005 0.05438,0.0614 0.113281,0.14258 0.08836,0.12175 0.201821,0.29537 0.300781,0.46093 0.182249,0.30491 0.260123,0.47289 0.289063,0.64649 0.02894,0.17359 0.01336,0.39183 -0.05273,0.78711 -0.0651,0.38932 -0.112528,0.64357 -0.150391,0.79101 -0.0079,0.0307 -0.01478,0.0551 -0.02148,0.0762 -0.01138,-0.003 -0.02417,-0.006 -0.03711,-0.01 -0.0776,-0.0256 -0.179845,-0.0681 -0.28125,-0.11914 -0.185653,-0.0935 -2.629688,-1.5009 -4.552734,-2.625 -1.282031,-0.7494 -2.435134,-1.43939 -2.486328,-1.47461 -0.143375,-0.0986 -0.22401,-0.25439 -0.22461,-0.4082 -0.0015,-0.31488 -0.341613,-0.93372 -0.521484,-1.13282 -0.602005,-0.66635 -1.439222,-0.76531 -2.214844,-0.27343 -0.469317,0.29763 -0.699188,0.73697 -0.738281,1.3457 -0.04029,0.62781 0.02306,0.82231 0.363281,1.19141 0.305691,0.33164 0.626546,0.51905 1.064453,0.61718 0.273062,0.0611 0.433919,0.045 0.892578,-0.0879 0.300263,-0.0868 0.446403,-0.11962 0.509766,-0.11914 0.06336,4.8e-4 0.104102,0.0164 0.28125,0.10547 0.341573,0.17182 1.543983,0.86651 2.646484,1.52149 0.441001,0.26198 0.86858,0.52017 1.226563,0.73828 0.33016,0.20115 0.607308,0.37236 0.767578,0.47656 -0.02253,0.018 -0.04925,0.0384 -0.07617,0.0586 -0.08108,0.0607 -0.179132,0.12816 -0.285156,0.19727 -0.176706,0.11518 -0.374323,0.2319 -0.546875,0.32031 -0.188084,0.0963 -0.277403,0.13499 -0.328125,0.14649 -0.05072,0.0115 -0.102465,0.0108 -0.261719,-0.006 -0.141442,-0.0148 -0.732095,-0.12553 -1.226562,-0.23633 -0.699561,-0.15676 -3.531951,-0.85463 -5.759766,-1.41406 -1.48521,-0.37296 -2.780364,-0.71048 -2.847656,-0.73243 -0.103559,-0.0338 -0.161379,-0.0613 -0.191406,-0.082 -0.03003,-0.0207 -0.04263,-0.0344 -0.07031,-0.0801 -0.229144,-0.37756 -0.642028,-0.93507 -0.935547,-1.08984 -0.339725,-0.17912 -1.061725,-0.16722 -1.4375,-0.0644 -0.449437,0.12296 -0.918021,0.65577 -1.052734,1.10937 -0.127464,0.42946 -0.128104,0.63305 0,1.06446 0.217365,0.73195 0.914891,1.18164 1.738281,1.18164 0.461931,0 0.760072,-0.13209 1.226563,-0.51758 0.07731,-0.0639 0.147731,-0.10874 0.197265,-0.13477 0.03167,-0.0166 0.05532,-0.0234 0.06055,-0.0254 h 0.002 c 0.01945,0.002 0.058,0.005 0.109375,0.0137 0.110436,0.0177 0.283261,0.0522 0.519531,0.10352 0.590676,0.12821 1.585342,0.36567 3.119141,0.74414 2.361876,0.58279 5.810594,1.40847 6.328125,1.50977 0.358364,0.0701 0.579947,0.0855 1.125,-0.17969 0.324712,-0.15796 0.792302,-0.42517 1.509766,-0.83985 0.118027,-0.0682 0.239196,-0.12901 0.335937,-0.16992 0.05804,-0.0245 0.108859,-0.0418 0.134766,-0.0488 h 0.002 c 0.02118,0.009 0.120654,0.0409 0.130859,0.0449 0.09454,0.0372 0.210124,0.0923 0.316407,0.15039 0.291709,0.15933 0.747353,0.42436 1.138671,0.66015 0.234792,0.14148 0.448546,0.27351 0.587891,0.36328 0,0 0.05663,0.0372 0.09766,0.0645 0,0 0,0.002 0,0.002 0,0 0,0.002 0,0.002 0.001,0.007 0.0029,0.0162 0.0039,0.0254 0.0012,0.0102 0.0028,0.0209 0.0039,0.0332 0.01691,0.18464 0.02284,0.58976 0.02344,1.35156 v 1.18359 c -0.03661,-0.0192 -0.0821,-0.0469 -0.140625,-0.0859 -0.179565,-0.11959 -0.452284,-0.33665 -0.863281,-0.68164 -0.229099,-0.1923 -0.731932,-0.59342 -0.908203,-0.66993 -0.06543,-0.0284 -0.146714,-0.0447 -0.216797,-0.0547 -0.300354,-0.0429 -1.028382,-0.0624 -2.359375,-0.0801 -1.252026,-0.0167 -2.557104,-0.0443 -2.851562,-0.0605 l -0.462891,-0.0254 -0.292969,-0.30469 c -0.503516,-0.52445 -0.963654,-0.74916 -1.541015,-0.6914 -1.05603,0.10563 -1.774578,1.13707 -1.525391,2.17578 0.07135,0.29745 0.179413,0.467 0.492187,0.78515 0.41857,0.42575 0.717293,0.56379 1.242188,0.56446 0.467098,6.3e-4 0.971541,-0.31407 1.332031,-0.72852 0.05416,-0.0623 0.117917,-0.12766 0.177735,-0.18164 0.04486,-0.0405 0.08677,-0.0744 0.11914,-0.0977 0.01243,-0.009 0.03361,-0.0221 0.03711,-0.0254 l 0.230468,-0.0195 c 0.222989,-0.0133 0.548355,-0.021 0.871094,-0.0215 0.21516,-3.5e-4 0.430507,0.002 0.615234,0.008 0.138546,0.004 0.260135,0.0105 0.34961,0.0176 0.0047,3.7e-4 0.01318,7.9e-4 0.02344,0.002 -0.0032,0.007 -0.0063,0.0138 -0.0098,0.0215 -0.04414,0.0967 -0.109165,0.22053 -0.177735,0.34179 -0.06857,0.12126 -0.14211,0.24087 -0.203125,0.33008 -0.03337,0.0488 -0.0634,0.0893 -0.08203,0.11133 l -0.002,0.002 c -0.112221,0.0398 -0.449286,0.13658 -0.904297,0.25977 -0.853146,0.23097 -2.154752,0.56609 -3.476562,0.89648 -1.321811,0.3304 -2.664919,0.65669 -3.601563,0.87305 -0.624429,0.14424 -1.10437,0.24148 -1.181641,0.25 -0.05687,0.006 -0.0912,0.008 -0.107421,0.008 -0.0091,-3.3e-4 -0.01516,6.3e-4 -0.01953,0 -0.0067,-0.002 -0.01568,-0.006 -0.04102,-0.0195 -0.05005,-0.0272 -0.148999,-0.0974 -0.308594,-0.21484 -0.592473,-0.43613 -0.922733,-0.53706 -1.449219,-0.42774 -0.525188,0.10904 -0.964113,0.42175 -1.222656,0.88282 -0.173692,0.30982 -0.213218,0.47049 -0.210938,0.85742 0.0025,0.5522 0.216968,1.0458 0.621094,1.3789 0.475253,0.39175 1.215986,0.46635 1.785156,0.19922 0.432992,-0.20321 0.665109,-0.44649 0.9375,-0.96484 0.05827,-0.1109 0.111996,-0.19641 0.150391,-0.2461 0.0038,-0.005 0.0083,-0.009 0.01172,-0.0137 0,0 0.002,-0.002 0.002,-0.002 0.0025,-0.003 0.0058,-0.005 0.0078,-0.008 0,0 0.002,-0.002 0.002,-0.002 0,0 0,-0.002 0,-0.002 0,0 0.002,-0.002 0.002,-0.002 0.217742,-0.0552 1.331773,-0.33809 2.539062,-0.64258 3.005601,-0.75801 6.558521,-1.67156 6.941406,-1.79688 0.232565,-0.0761 0.387011,-0.15236 0.617188,-0.5 0.128567,-0.19417 0.302626,-0.50168 0.554687,-0.95117 l 0.361329,-0.64258 0.128906,-0.0176 c 0.10138,-0.0137 0.560617,-0.0361 0.9375,-0.0391 l 0.589844,-0.006 0.699218,0.5879 c 0.22008,0.18452 0.421266,0.36056 0.558594,0.48828 -0.124117,0.0865 -0.32053,0.21277 -0.601562,0.38281 -0.613229,0.37104 -1.637894,0.95967 -3.285157,1.89648 -1.326121,0.75418 -2.184425,1.24099 -2.74414,1.54883 -0.419787,0.23088 -0.672821,0.36271 -0.81836,0.42774 -0.06214,0.0278 -0.105659,0.0424 -0.126953,0.0488 -0.06824,-0.0202 -0.30325,-0.0899 -0.486328,-0.15625 -0.784827,-0.28461 -1.229168,-0.18925 -1.787109,0.38672 -0.365028,0.37684 -0.552263,0.79482 -0.554688,1.28321 -0.0025,0.63613 0.288336,1.17047 0.822266,1.48437 0.266294,0.15654 0.428406,0.19372 0.810547,0.19141 0.381282,-0.002 0.544012,-0.0426 0.876953,-0.21485 0.197958,-0.1024 0.4713,-0.29443 0.605469,-0.44726 0.245563,-0.27968 0.427734,-0.80258 0.427734,-1.18164 0,-0.043 0.0019,-0.043 0.0078,-0.0547 0.0059,-0.0117 0.02582,-0.0429 0.08398,-0.0977 l 0.412109,-0.25781 c 0.386365,-0.23489 0.977242,-0.58344 1.605469,-0.94922 1.047044,-0.60962 2.203132,-1.26915 2.679687,-1.51953 0.07371,-0.0387 0.135735,-0.0665 0.181641,-0.084 l 0.01953,0.26172 c 0.0064,0.13949 0.0098,0.30262 0.0098,0.46679 v 0.66992 l -0.191406,0.26758 c -0.123194,0.17143 -0.408497,0.52272 -0.609375,0.7461 -0.50391,0.56033 -2.074299,2.21157 -3.535157,3.72851 -0.876514,0.91017 -1.716605,1.77547 -2.267578,2.33399 0,0 -0.552076,0.54835 -0.597656,0.59375 -0.0067,0.002 -0.04145,0.0174 -0.0918,0.0293 -0.100446,0.0238 -0.265406,0.0479 -0.476562,0.0645 -1.023158,0.0804 -1.601487,0.49291 -1.791016,1.33984 -0.184535,0.82455 0.16041,1.54332 0.919922,1.93555 0.3586,0.18525 0.522613,0.23047 0.876953,0.23047 0.594806,0 1.03267,-0.26423 1.330078,-0.79297 0.18416,-0.32742 0.207481,-0.41667 0.240235,-1.2168 l 0.02734,-0.66211 0.660157,-0.70117 c 0.40244,-0.42724 1.839069,-1.93909 3.189453,-3.35742 1.946164,-2.0441 3.28565,-3.44581 3.445312,-3.74414 0.0381,-0.0712 0.05452,-0.14495 0.06641,-0.21094 0.05092,-0.28284 0.09789,-1.00303 0.173829,-2.35547 l 0.02539,-0.44141 0.242188,-0.14843 c 0.3855,-0.23627 0.917339,-0.53544 1.361328,-0.77344 0.221994,-0.119 0.421974,-0.22265 0.570312,-0.29492 0.07147,-0.0348 0.132037,-0.0631 0.171875,-0.0801 0.01225,0.007 0.03032,0.0168 0.05273,0.0312 0.100224,0.0647 0.291659,0.20682 0.634765,0.46875 0.492442,0.37594 0.690479,0.48652 1.283203,0.71484 0.08956,0.0345 0.155774,0.0639 0.199219,0.084 -0.0051,0.003 -0.01,0.005 -0.01563,0.008 -0.05818,0.0286 -0.142818,0.0672 -0.242187,0.11133 -0.19874,0.0882 -0.461191,0.19926 -0.738282,0.31054 -0.421884,0.16945 -1.073344,0.43612 -1.201171,0.50196 -0.07858,0.0404 -0.148369,0.0962 -0.21875,0.17187 -0.251668,0.27047 -0.67303,1.00849 -1.583985,2.62891 -0.34035,0.60542 -0.668162,1.17599 -0.892578,1.55664 -0.14961,0.25377 -0.287734,0.46306 -0.267578,0.4375 -0.04212,0.0534 -0.06426,0.0742 -0.134766,0.11328 -0.07051,0.039 -0.192048,0.0892 -0.388672,0.15625 -0.259381,0.0884 -0.618184,0.2325 -0.779296,0.33398 -0.412986,0.26024 -0.917969,0.96449 -0.917969,1.45118 0,0.59133 0.706802,1.48664 1.27539,1.64453 0.402274,0.11167 0.934347,0.0937 1.285157,-0.0762 0.341833,-0.16549 0.73499,-0.56888 0.880859,-0.91797 0.145061,-0.3468 0.117997,-1.00673 0.0039,-1.38282 -0.06759,-0.2228 -0.08239,-0.3227 -0.06055,-0.44921 0.02185,-0.12652 0.09806,-0.30974 0.263672,-0.62696 0.160909,-0.30821 0.312078,-0.57752 0.441407,-0.79101 0.097,-0.16012 0.182643,-0.28953 0.248046,-0.37696 0.0055,-0.007 0.01041,-0.0147 0.01563,-0.0215 0.0057,0.009 0.01182,0.0181 0.01758,0.0273 0.06615,0.10648 0.150796,0.26508 0.226562,0.42383 0.05051,0.10583 0.09739,0.21325 0.134766,0.30664 0.02803,0.0701 0.05068,0.13211 0.06445,0.17774 0.0051,0.0169 0.01109,0.0424 0.01367,0.0488 v 0.002 c 0,0 0,0.002 0,0.002 l -0.08789,0.36328 c -0.04147,0.16365 -0.09656,0.3696 -0.160156,0.60742 -0.238494,0.89186 -0.61408,2.23859 -0.996094,3.58204 -0.382014,1.34344 -0.769989,2.6831 -1.035156,3.5625 -0.141423,0.46901 -0.251212,0.81628 -0.294922,0.93359 0,0 0,0.002 0,0.002 0,0 0,0.002 0,0.002 l -0.002,0.002 -0.002,0.002 c -0.0233,0.0204 -0.06661,0.0532 -0.119141,0.0898 -0.09214,0.0643 -0.215669,0.1404 -0.337891,0.20703 -0.561999,0.30634 -0.885195,0.61283 -1.017578,1.05468 -0.0911,0.30356 -0.110764,0.84528 0,1.14063 0.189454,0.50508 0.657504,0.9513 1.166016,1.09766 0.602545,0.17341 1.179991,0.0402 1.615234,-0.38282 0.419559,-0.40775 0.597341,-0.78621 0.59375,-1.31445 -0.0029,-0.42158 -0.04397,-0.54753 -0.460937,-1.27734 -0.01761,-0.0308 -0.03854,-0.0812 -0.05273,-0.125 l -0.01758,-0.0684 c 6.2e-4,-0.003 0.0045,-0.0588 0.01758,-0.13086 0.02108,-0.11646 0.06055,-0.29182 0.115235,-0.51563 0.136703,-0.55952 0.372325,-1.42001 0.683594,-2.49414 1.592057,-5.49401 1.857192,-6.4191 1.755859,-6.95898 -0.03038,-0.16191 -0.126131,-0.33569 -0.287109,-0.42969 h -0.002 v -0.002 c -0.0013,-7.4e-4 -0.0026,-0.001 -0.0039,-0.002 l -0.002,-0.002 -0.002,-0.002 c 0,0 0,-0.002 0,-0.002 0,0 -0.002,-0.002 -0.002,-0.002 -0.0017,-0.002 -0.0039,-0.004 -0.0059,-0.006 -0.0022,-0.002 -0.0053,-0.005 -0.0078,-0.008 -0.0028,-0.003 -0.0047,-0.006 -0.0078,-0.01 -0.02056,-0.0245 -0.04837,-0.0582 -0.07813,-0.0996 -0.07439,-0.10341 -0.168388,-0.24994 -0.259765,-0.41015 -0.217326,-0.38104 -0.305217,-0.58803 -0.31836,-0.71875 -0.01314,-0.13072 0.02653,-0.25634 0.171875,-0.55078 0.288116,-0.58364 0.495919,-0.82147 0.66211,-0.90625 0.107315,-0.0548 0.502171,-0.20736 0.857422,-0.32813 0.1421,-0.0483 0.279662,-0.0926 0.398437,-0.1289 l 0.126953,-0.0352 c 0.0089,0.122 0.01939,0.30196 0.03125,0.55469 0.02047,0.43643 0.02466,1.8284 0.01758,3.32617 -0.0042,0.89866 -0.01259,1.84008 -0.02344,2.65234 -0.01302,0.97472 -0.02993,1.77185 -0.04687,2.0586 -8.47e-4,0.0143 -0.0031,0.0276 -0.0039,0.0391 -7e-5,9.8e-4 6.9e-5,0.003 0,0.004 -0.0096,0.0104 -0.02142,0.022 -0.03516,0.0352 -0.04599,0.0441 -0.110275,0.0963 -0.171875,0.13867 -0.216932,0.14925 -0.411,0.36351 -0.544921,0.59961 -0.180619,0.3185 -0.214365,0.45769 -0.210938,0.88477 0.0042,0.53004 0.154191,0.93291 0.494141,1.29883 0.502005,0.54033 1.293763,0.65327 1.949218,0.29296 0.616479,-0.33887 0.976191,-0.97615 0.978516,-1.70507 0.0019,-0.58162 -0.211216,-0.97556 -0.701172,-1.30078 -0.0891,-0.0591 -0.148077,-0.10887 -0.177734,-0.14063 -0.01363,-0.0146 -0.02068,-0.023 -0.02344,-0.0273 0,0 0,-0.002 0,-0.002 -0.008,-0.0487 -0.02883,-0.24041 -0.04297,-0.48242 -0.0225,-0.38518 -0.0414,-0.93818 -0.05664,-1.54883 -0.0341,-1.36652 -0.04501,-3.04464 -0.01953,-3.76172 0.01389,0.007 0.02835,0.0143 0.04297,0.0215 0.224891,0.11117 0.535243,0.28241 0.884766,0.49219 0.340486,0.20436 0.415946,0.28106 0.464844,0.37695 -0.0056,-0.0109 0.03917,0.0937 0.08594,0.23047 0.07015,0.20514 0.171262,0.52016 0.292969,0.91015 0.304268,0.97498 0.737151,2.42373 1.160156,3.86524 0.423005,1.44151 0.836246,2.87742 1.097657,3.83008 0.06971,0.25404 0.12845,0.4731 0.173828,0.64843 l 0.09766,0.40235 c -0.0023,-9.5e-4 -0.0461,0.13603 -0.05078,0.14844 -0.03853,0.10202 -0.09412,0.22817 -0.154297,0.3457 -0.234372,0.45772 -0.269883,0.59958 -0.267578,0.97266 0.0039,0.49267 0.125469,0.82235 0.4375,1.17773 0.452517,0.51544 1.127873,0.69343 1.8125,0.49609 0.316553,-0.0912 0.490473,-0.20217 0.751953,-0.4707 0.561742,-0.57689 0.650283,-1.26266 0.261719,-1.97656 -0.218365,-0.40123 -0.489637,-0.61346 -1.09375,-0.89258 -0.283928,-0.13119 -0.357796,-0.21413 -0.365235,-0.22852 0.002,0.004 -0.02822,-0.07 -0.0625,-0.16992 -0.05142,-0.14987 -0.124449,-0.37781 -0.210937,-0.66211 -0.572084,-1.88048 -1.809583,-6.32528 -2.5,-8.43554 -0.163091,-0.49849 -0.310074,-0.91899 -0.417969,-1.12305 -0.02158,-0.0408 -0.06325,-0.11516 -0.128906,-0.16992 -0.146469,-0.12218 -0.798366,-0.4889 -1.158203,-0.6836 -0.307552,-0.16641 -0.603821,-0.33477 -0.804688,-0.45312 -0.109646,-0.0646 -0.20707,-0.12872 -0.224609,-0.13867 0,0 -0.002,-0.002 -0.002,-0.002 h -0.002 v -0.002 c -0.0044,-0.006 -0.01232,-0.0168 -0.02148,-0.0371 -0.01721,-0.0382 -0.03733,-0.10416 -0.05469,-0.19336 -0.05208,-0.26759 -0.07163,-0.74675 -0.04883,-1.44726 0.01912,-0.58721 0.0467,-0.92765 0.08789,-1.07813 0.0206,-0.0752 0.03709,-0.0953 0.04492,-0.10351 0.0078,-0.008 0.02056,-0.0171 0.07617,-0.0371 0.770256,-0.27708 1.068476,-0.42088 1.61914,-0.78516 0.131833,-0.0872 0.255075,-0.16173 0.355469,-0.21875 8.74e-4,0.0651 0,0.14194 0,0.23242 0,0.32199 -0.03441,0.93935 -0.07617,1.33203 -0.03046,0.28843 -0.07323,0.84096 -0.03711,1.03321 0.01028,0.0548 0.03066,0.10111 0.04297,0.1289 0.138442,0.31263 0.711244,1.30324 1.361328,2.38477 0.448274,0.74578 0.77974,1.31051 0.996094,1.69726 0.108176,0.19338 0.188431,0.34171 0.238281,0.44336 0.02118,0.0432 0.03543,0.0788 0.04492,0.10157 -0.0024,0.0181 -0.0045,0.0424 -0.0098,0.0684 -0.01689,0.0829 -0.047,0.19474 -0.07813,0.28516 -0.260465,0.75704 -0.230549,1.20326 0.134766,1.7793 0.243562,0.38406 0.763383,0.71299 1.21875,0.78125 0.631529,0.0947 1.379015,-0.26535 1.697265,-0.81836 0.468351,-0.81385 0.223516,-1.97707 -0.566406,-2.41797 -0.183656,-0.10253 -0.555447,-0.19479 -0.802734,-0.23242 l -0.341797,-0.0508 -0.337891,-0.53711 c -0.203493,-0.32183 -0.371198,-0.6017 -0.498047,-0.82813 -0.09514,-0.16982 -0.167953,-0.31121 -0.21289,-0.41211 -0.0044,-0.01 -0.0079,-0.0183 -0.01172,-0.0273 0.114075,-0.0167 0.310277,-0.0254 0.589844,-0.0254 h 0.513672 c 2.154235,2.24165 4.310187,4.47843 6.443359,6.72461 l 0.130859,0.14648 v 0.5 c 0,0.76019 0.102782,1.07241 0.492188,1.47071 0.430241,0.44011 1.167539,0.66951 1.728515,0.48437 0.404838,-0.13361 0.81847,-0.50132 1.029297,-0.88867 0.46184,-0.84855 0.109884,-1.91665 -0.767578,-2.31836 -0.259917,-0.11899 -0.566355,-0.18026 -1.009765,-0.22266 l -0.5,-0.0469 -7.011719,-7.0625 -0.556641,-0.0664 c -0.256605,-0.03 -0.844874,-0.0762 -1.285156,-0.10351 -0.238464,-0.0148 -0.410219,-0.0249 -0.523438,-0.0391 -0.113218,-0.0142 -0.156576,-0.03 -0.183593,-0.0469 -0.02702,-0.0168 -0.06137,-0.0482 -0.123047,-0.14258 -0.06167,-0.0944 -0.142978,-0.2433 -0.259766,-0.44922 -0.199593,-0.35191 -0.278426,-0.50759 -0.302734,-0.66015 -0.02431,-0.15257 -7.08e-4,-0.36721 0.07031,-0.82422 0.05318,-0.34221 0.09428,-0.57552 0.13086,-0.7168 0.01858,-0.0717 0.03625,-0.11954 0.04687,-0.14258 0,0 0.002,0 0.002,0 0,0 0.002,0 0.002,0 0,0 0.002,0 0.002,0 0,0 0.002,0 0.002,0 -0.0039,3.8e-4 0.0735,0.005 0.242188,0.082 0.253037,0.11546 0.691614,0.36818 1.40625,0.81446 0.448718,0.2802 1.670207,0.99626 2.683593,1.57421 1.686438,0.9618 2.51783,1.46709 2.892579,1.78907 0.124916,0.10732 0.195787,0.19221 0.240234,0.26172 0.04445,0.0695 0.06653,0.12565 0.08398,0.20703 0.20497,0.95573 0.919892,1.65625 1.798828,1.65625 0.474734,0 0.822584,-0.16221 1.207032,-0.53711 0.651181,-0.63503 0.748097,-1.4109 0.248047,-2.14063 -0.240281,-0.35064 -0.515981,-0.58882 -0.863282,-0.71289 -0.365859,-0.13062 -0.678368,-0.11436 -1.232422,0.0274 -0.09342,0.0239 -0.188372,0.0466 -0.271484,0.0644 l -0.197266,0.0371 c 0,0 -0.002,0 -0.002,0 0,0 0,-0.002 0,-0.002 0,0 -0.002,0 -0.002,0 -0.04279,-0.0152 -0.126368,-0.0522 -0.236328,-0.10547 -0.183266,-0.0888 -0.444655,-0.22628 -0.78125,-0.41211 -0.448793,-0.24777 -1.032887,-0.58119 -1.75,-1 -1.272137,-0.74296 -1.887084,-1.11303 -2.136719,-1.29492 -0.0073,-0.005 -0.01486,-0.0107 -0.02148,-0.0156 0.02685,-0.0238 0.05934,-0.0498 0.0957,-0.0781 0.155612,-0.12117 0.391154,-0.27643 0.679688,-0.44141 0.1874,-0.10715 0.289957,-0.15655 0.357421,-0.17774 0.06746,-0.0212 0.120438,-0.0253 0.261719,-0.0234 0.01658,2.2e-4 0.260855,0.0326 0.613281,0.10547 0.52864,0.10933 1.366905,0.30154 2.517579,0.58007 1.723472,0.41718 3.198792,0.77934 4.353515,1.06836 1.385668,0.34684 2.318623,0.59285 2.638672,0.69141 0.01487,0.005 0.0291,0.008 0.04102,0.0117 l 0.002,0.002 c 0.02527,0.0484 0.05711,0.12418 0.08008,0.19336 0.138827,0.41796 0.38253,0.71823 0.757812,0.91602 0.239648,0.12637 0.431828,0.15906 0.88086,0.16015 0.529582,0.002 0.640484,-0.0283 0.970703,-0.21484 0.256623,-0.14493 0.438629,-0.31424 0.585937,-0.55078 0.1773,-0.28472 0.217978,-0.42939 0.210938,-0.81836 -0.0098,-0.5639 -0.201672,-0.97812 -0.623047,-1.34961 -0.846521,-0.74632 -1.527831,-0.74676 -2.34375,0 -0.122393,0.11202 -0.199534,0.17154 -0.238281,0.19336 -0.01695,0.01 -0.02783,0.0155 -0.03516,0.0176 -0.0083,0.002 -0.0175,0 -0.03906,0 -0.06473,0 -0.184708,-0.0118 -0.582031,-0.0977 -0.595985,-0.12883 -1.790343,-0.41405 -4.3125,-1.02344 -3.874386,-0.93611 -5.231672,-1.27438 -5.63086,-1.28125 -0.125852,-0.002 -0.203871,0.0188 -0.267578,0.0371 -0.188956,0.0545 -0.670852,0.31919 -0.949218,0.48438 -0.58393,0.34652 -0.972901,0.55854 -1.214844,0.66406 -0.161295,0.0703 -0.256751,0.0859 -0.271485,0.0859 0.0059,-1e-5 -0.04154,-0.004 -0.11914,-0.0332 -0.116404,-0.0435 -0.301497,-0.13288 -0.554688,-0.27343 -0.354975,-0.19707 -0.678348,-0.38676 -0.941406,-0.55078 -0.157835,-0.0984 -0.29468,-0.18858 -0.402344,-0.26368 -0.08075,-0.0563 -0.144572,-0.10504 -0.1875,-0.14062 -0.01382,-0.0114 -0.02629,-0.0221 -0.03516,-0.0312 0,0 0,-0.002 0,-0.002 0,0 -0.002,0 -0.002,0 0,0 0,-0.002 0,-0.002 -0.0038,-0.0241 -0.0066,-0.0638 -0.0098,-0.11719 -0.01196,-0.20021 -0.0094,-0.59728 0.0059,-1.30664 l 0.02539,-1.16211 c 0.02376,0.0136 0.05224,0.034 0.08789,0.0586 0.161368,0.11153 0.438882,0.3407 0.904297,0.74023 0.224032,0.19232 0.652511,0.54134 0.80664,0.6211 0.03901,0.0202 0.09475,0.0503 0.1875,0.0723 0.284781,0.0674 1.349421,0.0884 4.132813,0.16016 1.052313,0.0271 1.541367,0.0369 1.710937,0.0723 0.0407,0.009 0.05964,0.0181 0.06641,0.0215 0,0 0.002,0 0.002,0 0,0 0.002,0.002 0.002,0.002 0,0 0.002,0 0.002,0 h 0.002 c 0.0017,0.002 0.0043,0.007 0.01367,0.0195 0.01815,0.0251 0.06928,0.11247 0.125,0.19922 0.343309,0.53455 1.312533,0.81068 1.943359,0.64063 0.397291,-0.10709 0.866184,-0.53805 1.060547,-0.91407 0.109872,-0.21243 0.154825,-0.44428 0.158203,-0.73242 0.0043,-0.3742 -0.0339,-0.51574 -0.236328,-0.88281 -0.298674,-0.54164 -0.680838,-0.80573 -1.273437,-0.86719 -0.644686,-0.0668 -0.93631,0.0486 -1.546875,0.63477 l -0.394531,0.38086 -1.101563,0.0508 c -0.407944,0.0194 -0.698842,0.0299 -0.892578,0.0293 -0.05394,-1.6e-4 -0.100029,1.5e-4 -0.138672,-0.002 0.0062,-0.0162 0.0132,-0.036 0.02148,-0.0547 0.04399,-0.0994 0.113201,-0.23366 0.1875,-0.36523 0.0743,-0.13157 0.155228,-0.26068 0.21875,-0.35156 0.03292,-0.0471 0.06362,-0.0849 0.07617,-0.0996 0,0 0.002,-0.002 0.002,-0.002 0.0054,-0.003 0.01898,-0.0114 0.04102,-0.0215 0.06233,-0.0286 0.186745,-0.0751 0.382813,-0.13476 0.490168,-0.14927 1.429392,-0.39285 3.15625,-0.82422 2.002144,-0.50015 3.649516,-0.90104 4.683593,-1.14063 0.413631,-0.0958 0.729997,-0.16527 0.927735,-0.20508 l 0.191406,-0.0351 h 0.002 c 0.01358,0.002 0.08843,0.0266 0.296875,0.20898 0.595625,0.52121 1.131444,0.59132 1.828125,0.23828 0.72242,-0.36607 1.072719,-1.01439 0.988281,-1.82226 -0.05805,-0.55541 -0.322891,-0.97552 -0.796875,-1.25977 -0.88579,-0.53118 -1.750597,-0.25848 -2.375,0.70117 -0.219036,0.33664 -0.312458,0.47004 -0.382812,0.52344 -0.07035,0.0534 -0.198698,0.094 -0.552735,0.19141 -0.336637,0.0926 -2.04923,0.52995 -3.773437,0.96484 -1.723363,0.43469 -3.65153,0.92358 -4.285156,1.08594 l -1.285157,0.33008 -0.457031,0.91797 c -0.129003,0.25847 -0.267634,0.5204 -0.371094,0.70507 -0.06897,0.12312 -0.134195,0.22517 -0.136718,0.22852 -0.09207,0.12238 -0.360928,0.23321 -1.021485,0.23242 -0.312561,-3.1e-4 -0.487539,-0.021 -0.662109,-0.0898 -0.17457,-0.0689 -0.369655,-0.19898 -0.681641,-0.44727 -0.240079,-0.19106 -0.415135,-0.3487 -0.517578,-0.46289 -0.03865,-0.0431 -0.06622,-0.0809 -0.08398,-0.10742 0.01649,-0.0216 0.03865,-0.0462 0.05859,-0.0644 l 0.175781,-0.11329 c 0.178393,-0.11099 0.462337,-0.28006 0.8125,-0.48632 0.583605,-0.34377 1.355116,-0.79091 2.15625,-1.25 1.602267,-0.91819 3.336151,-1.89136 3.902344,-2.17969 0.249337,-0.12697 0.367268,-0.17189 0.441406,-0.17774 0.07414,-0.006 0.167889,0.0177 0.398437,0.10547 0.208498,0.0793 0.528137,0.11984 0.808594,0.125 0.502236,0.009 0.595748,-0.0229 0.900391,-0.23437 0.415895,-0.28876 0.526024,-0.46865 0.621093,-1.01953 0.08502,-0.49239 0.05525,-1.06165 -0.160156,-1.41016 -0.200533,-0.32449 -0.717923,-0.61898 -1.132812,-0.74219 -0.48644,-0.14443 -0.673351,-0.12707 -1.080078,0.0899 -0.509534,0.27175 -0.856129,0.78725 -1.03711,1.45117 -0.033,0.12106 -0.0734,0.2441 -0.109375,0.33789 -0.02159,0.0563 -0.04291,0.10226 -0.05469,0.125 -7.86e-4,0.002 -0.0013,0.003 -0.002,0.004 -6.14e-4,0.001 -0.0014,0.003 -0.002,0.004 0,0 -0.002,0.002 -0.002,0.002 0,0 -0.002,0.002 -0.002,0.002 v 0.002 c -0.0076,0.008 -0.01476,0.0115 -0.04883,0.0352 -0.05034,0.035 -0.152418,0.0988 -0.341797,0.20898 -0.378757,0.22033 -1.10698,0.62971 -2.539062,1.4336 -0.99509,0.55858 -1.687828,0.9305 -2.021485,1.09179 -3.25e-4,-0.006 -0.0016,-0.0131 -0.002,-0.0195 -0.01785,-0.34698 0.03992,-0.76163 0.154297,-1.14648 0.114377,-0.38486 0.287386,-0.73992 0.470703,-0.97071 0.09967,-0.12547 0.765147,-0.85399 1.595703,-1.73828 1.245835,-1.32642 2.921708,-3.08004 3.964844,-4.14258 0.584876,-0.59574 0.891437,-0.89932 1.068359,-1.02539 0.08846,-0.063 0.13594,-0.0832 0.189454,-0.0957 0.05351,-0.0125 0.128267,-0.0151 0.251953,-0.0156 0.914403,-0.003 1.39695,-0.25771 1.753906,-0.94727 0.29623,-0.57193 0.299419,-1.05318 0.01172,-1.62891 -0.407876,-0.81626 -1.215982,-1.15179 -2.074219,-0.85937 -0.414923,0.14138 -0.838176,0.55485 -1.019531,0.96484 -0.118714,0.26831 -0.142104,0.45183 -0.136719,1.0625 l 0.0059,0.5586 -0.15625,0.17382 c -0.09749,0.10763 -1.46748,1.55173 -2.980468,3.13868 -3.55961,3.73359 -3.957726,4.15047 -4.150391,4.4375 -0.101561,0.1513 -0.161004,0.26173 -0.189453,0.64453 -0.01615,0.21726 -0.02725,0.54712 -0.04297,1.05664 l -0.03711,1.21875 -0.08398,0.0879 c -0.03842,0.0401 -0.228903,0.19064 -0.460937,0.34766 -0.348051,0.23552 -0.815901,0.51982 -1.208985,0.72851 -0.172674,0.0917 -0.305115,0.15821 -0.40039,0.19531 -0.09528,0.0371 -0.146505,0.0443 -0.179688,0.043 -0.06636,-0.003 -0.159776,-0.0511 -0.404297,-0.25586 -0.508408,-0.4258 -0.989618,-0.71891 -1.542968,-0.93554 -0.08199,-0.0321 -0.150657,-0.0615 -0.207032,-0.0859 0.189209,-0.0996 0.541498,-0.25264 1.097657,-0.47266 l 1.27539,-0.5039 0.25586,-0.39063 c 0.123763,-0.1907 0.722787,-1.23649 1.199218,-2.08203 0.542446,-0.96269 1.122471,-1.96284 1.253907,-2.16797 l 0.203125,-0.31836 0.255859,-0.0469 c 0.787217,-0.14467 1.271538,-0.4494 1.568359,-1.03516 0.226279,-0.44645 0.252935,-1.04447 0.03125,-1.4707 -0.5596,-1.07591 -2.033566,-1.36709 -2.830078,-0.50977 -0.453393,0.488 -0.602952,1.12593 -0.425781,1.7793 0.07052,0.26003 0.105961,0.42751 0.115234,0.5293 0.0093,0.10178 0.0027,0.13037 -0.02344,0.19726 -0.03411,0.0874 -0.36134,0.7156 -0.628906,1.1875 -0.107027,0.18876 -0.207928,0.3614 -0.28125,0.48047 -0.01279,0.0208 -0.02567,0.0389 -0.03711,0.0566 -0.0484,-0.0636 -0.111477,-0.1526 -0.1875,-0.26562 -0.168412,-0.2504 -0.229293,-0.37606 -0.248047,-0.53125 -0.01875,-0.1552 0.01213,-0.38359 0.105469,-0.79493 0.118818,-0.52364 0.901622,-3.29558 1.544922,-5.5039 0.25732,-0.88333 0.493144,-1.68274 0.658203,-2.22266 0.11004,-0.35994 0.197738,-0.62542 0.214844,-0.66797 0.05826,-0.14492 0.08418,-0.1838 0.08594,-0.18554 h 0.002 c 0.0095,-0.006 0.04981,-0.0303 0.173828,-0.0762 0.861541,-0.3187 1.30362,-0.87944 1.298828,-1.71289 -0.0033,-0.61025 -0.261619,-1.11315 -0.75,-1.44531 -0.305352,-0.20768 -0.616118,-0.32535 -0.941406,-0.33398 z m -0.01172,1.33593 c 0.01533,-6.8e-4 0.03147,-7.9e-4 0.04687,0 0.04132,0.002 0.08214,0.0106 0.126953,0.0254 0.103064,0.034 0.112212,0.049 0.126953,0.0742 0.01474,0.0252 0.03906,0.10698 0.03906,0.2793 0,0.14385 -0.02215,0.26963 -0.05078,0.3457 -0.0095,0.0252 -0.01974,0.0439 -0.02734,0.0566 -0.01865,0.003 -0.04476,0.008 -0.06055,0.01 -0.06322,0.005 -0.145967,0.008 -0.222657,0.008 -0.132294,0 -0.176559,-0.009 -0.183593,-0.0117 -0.007,-0.003 -0.02763,-0.014 -0.107422,-0.0937 -0.07982,-0.0798 -0.09114,-0.10068 -0.09375,-0.10742 -0.0026,-0.007 -0.01172,-0.0502 -0.01172,-0.18164 0,-0.12331 0.0074,-0.17087 0.0078,-0.17578 0.0024,-0.003 0.01764,-0.024 0.08594,-0.084 0.111228,-0.0976 0.216914,-0.13974 0.324219,-0.14453 z m -12.095703,0.0488 c 0.02737,-1.2e-4 0.06382,0.001 0.113281,0.006 0.101551,0.01 0.136466,0.0214 0.15625,0.0312 0.01978,0.01 0.05073,0.0308 0.119141,0.10547 0.07302,0.0797 0.08792,0.10771 0.09375,0.12305 0.0058,0.0153 0.01367,0.0536 0.01367,0.16797 0,0.12231 -0.0064,0.15052 -0.0098,0.1582 -0.0033,0.008 -0.02886,0.0445 -0.123047,0.13867 -0.08238,0.0824 -0.127288,0.11529 -0.142578,0.12305 -0.01529,0.008 -0.01572,0.01 -0.08203,0.01 -0.115183,-1.1e-4 -0.235145,-0.0508 -0.322266,-0.13281 -0.08712,-0.082 -0.132813,-0.18578 -0.132813,-0.27734 0,-0.0297 0.02134,-0.12797 0.06641,-0.2168 0.04507,-0.0888 0.112569,-0.17131 0.15039,-0.20117 0.03017,-0.0238 0.03942,-0.0292 0.04492,-0.0312 0.0055,-0.002 0.01576,-0.004 0.05469,-0.004 z m 6.304687,4.86914 c 0.0517,-2.9e-4 0.111584,0.007 0.179688,0.0274 0.114177,0.0342 0.153229,0.0674 0.18164,0.10937 0.02841,0.042 0.05469,0.12022 0.05469,0.27149 0,0.17649 -0.01917,0.25053 -0.0293,0.26953 -0.01013,0.019 -0.02729,0.0408 -0.146484,0.10156 -0.11358,0.0579 -0.195352,0.0764 -0.248047,0.0762 -0.0527,-2.5e-4 -0.08225,-0.0106 -0.13086,-0.0488 -0.07093,-0.0558 -0.117158,-0.11498 -0.15039,-0.1875 -0.03323,-0.0725 -0.05273,-0.16024 -0.05273,-0.27148 0,-0.12556 0.03683,-0.20144 0.0918,-0.25586 0.05497,-0.0544 0.134998,-0.0911 0.25,-0.0918 z m 14.519531,0.10352 c 0.214705,0 0.338565,0.0827 0.386719,0.17578 0.04911,0.095 0.06331,0.25249 0.03125,0.38867 -0.03206,0.13618 -0.109621,0.23087 -0.15039,0.25195 -0.07066,0.0366 -0.129801,0.0489 -0.189454,0.0488 -0.05965,-2e-5 -0.122167,-0.0141 -0.193359,-0.0508 -0.112001,-0.0576 -0.141579,-0.0897 -0.162109,-0.12695 -0.02053,-0.0373 -0.04058,-0.11431 -0.04102,-0.27539 -4.39e-4,-0.11612 0.0037,-0.17718 0.0078,-0.19532 0.0012,-0.005 0.0034,-0.008 0.0039,-0.01 0,0 0,-0.002 0,-0.002 0,0 0.002,-0.002 0.002,-0.002 0.0053,-0.009 0.03093,-0.0407 0.08984,-0.0996 0.06841,-0.0684 0.09785,-0.0886 0.109375,-0.0937 0.01152,-0.005 0.02765,-0.01 0.105468,-0.01 z m -29.464843,0.16992 c 0.08993,0.003 0.182729,0.0254 0.248047,0.0547 0.05412,0.0242 0.08361,0.0537 0.0918,0.0625 0.0013,0.007 0.0124,0.0404 0.01758,0.082 0.0069,0.0552 0.01059,0.12804 0.0078,0.19922 -0.0028,0.0712 -0.01069,0.14169 -0.02148,0.19336 -0.0044,0.021 -0.0178,0.0569 -0.01758,0.0625 -0.008,0.008 -0.02902,0.0291 -0.05273,0.0469 -0.0337,0.0253 -0.07567,0.0483 -0.0957,0.0566 -0.01436,0.006 -0.07986,0.0256 -0.146484,0.0371 -0.06663,0.0115 -0.139989,0.0176 -0.1875,0.0176 -0.09181,0 -0.122877,-0.008 -0.132813,-0.0117 -0.0099,-0.004 -0.02488,-0.0112 -0.08008,-0.0664 -0.05925,-0.0592 -0.06308,-0.069 -0.06641,-0.0781 -0.0033,-0.009 -0.01172,-0.0524 -0.01172,-0.16602 0,-0.13393 0.02106,-0.22814 0.05273,-0.29296 0.03167,-0.0648 0.07064,-0.1071 0.140625,-0.14844 0.04635,-0.0274 0.146111,-0.053 0.253907,-0.0488 z m 21.304687,3.80273 c 0.06052,4e-5 0.119303,0.0126 0.173828,0.043 0.05453,0.0304 0.10663,0.0781 0.154297,0.15625 0.0084,0.0139 0.02917,0.064 0.04297,0.11719 0.0138,0.0532 0.02145,0.11167 0.02148,0.14648 7.1e-5,0.0819 -0.0046,0.096 -0.0098,0.10743 -0.0052,0.0114 -0.02771,0.0453 -0.101563,0.11914 -0.08437,0.0843 -0.106205,0.0969 -0.113281,0.0996 -0.0071,0.003 -0.05332,0.0117 -0.189453,0.0117 -0.107819,0 -0.165445,-0.004 -0.181641,-0.008 -0.0076,-0.002 -0.014,-0.005 -0.01953,-0.008 -0.01221,-0.008 -0.03188,-0.028 -0.0918,-0.0879 -0.07084,-0.0708 -0.09097,-0.10059 -0.0957,-0.11133 -0.0047,-0.0107 -0.0098,-0.0294 -0.0098,-0.11523 1.4e-4,-0.1634 0.05568,-0.27334 0.134766,-0.35157 0.07909,-0.0782 0.1851,-0.11919 0.285156,-0.11914 z m -13.226562,0.21485 c 0.180471,0 0.253308,0.0384 0.294922,0.082 0.04161,0.0436 0.08398,0.13344 0.08398,0.33008 0,0.14012 -0.0143,0.19535 -0.02539,0.21679 -0.01109,0.0214 -0.03315,0.0485 -0.134765,0.11133 -0.05163,0.0319 -0.191503,0.0723 -0.273438,0.0723 -0.086,0 -0.09701,-0.004 -0.109375,-0.01 -0.01237,-0.006 -0.05282,-0.0352 -0.138672,-0.12109 -0.08483,-0.0848 -0.114783,-0.12542 -0.121093,-0.13867 -0.0063,-0.0133 -0.0098,-0.0233 -0.0098,-0.10547 0,-0.17279 0.04404,-0.27028 0.105469,-0.33203 0.06142,-0.0618 0.15718,-0.10547 0.328125,-0.10547 z m -6.705078,3.39648 c 0.06526,-3.1e-4 0.130101,0.004 0.177734,0.0137 0.03572,0.007 0.06212,0.0185 0.06641,0.0195 0.111597,0.0802 0.165635,0.21857 0.154297,0.36914 -0.01146,0.15213 -0.09009,0.28893 -0.21875,0.35546 -0.152363,0.0788 -0.294678,0.063 -0.404297,0 -0.109618,-0.063 -0.18164,-0.16644 -0.18164,-0.32421 0,-0.0648 0.02134,-0.1657 0.05859,-0.24805 0.03458,-0.0765 0.08704,-0.13519 0.101563,-0.14844 0,0 0.002,-0.002 0.002,-0.002 0.0037,-8.5e-4 0.0289,-0.0118 0.06641,-0.0195 0.04765,-0.01 0.112419,-0.0153 0.177735,-0.0156 z m 27.066406,0.28321 c 0.21929,-9.3e-4 0.321855,0.0426 0.365234,0.082 0.04338,0.0394 0.08008,0.10856 0.08008,0.29882 0,0.0832 -0.0206,0.17987 -0.05273,0.25 -0.02356,0.0514 -0.05535,0.0836 -0.06641,0.0957 0,0 -0.002,0.002 -0.002,0.002 -0.0022,5e-4 -0.0053,-5.2e-4 -0.0078,0 -0.01697,0.004 -0.04003,0.008 -0.06641,0.0117 -0.06595,0.009 -0.151972,0.0137 -0.230469,0.0137 -0.140195,0 -0.198973,-0.007 -0.205078,-0.008 -0.0032,-0.003 -0.02298,-0.0184 -0.08398,-0.0879 -0.06026,-0.0686 -0.07777,-0.0998 -0.08594,-0.1211 -0.0082,-0.0213 -0.01367,-0.0524 -0.01367,-0.13867 0,-0.19567 0.04038,-0.28084 0.07813,-0.32031 0.03775,-0.0395 0.109318,-0.0773 0.291016,-0.0781 z m 7.082031,2.48828 c 0.101568,0 0.151519,0.005 0.162109,0.008 0.002,5.2e-4 0.0062,0.002 0.0078,0.002 0,0 0.002,0.002 0.002,0.002 8.31e-4,3.7e-4 0.0049,0.001 0.0059,0.002 0.01102,0.008 0.03199,0.0284 0.0918,0.0918 0.07673,0.0814 0.09272,0.10808 0.09766,0.12109 0.0049,0.013 0.01172,0.0554 0.01172,0.17969 0,0.12427 -0.0071,0.16554 -0.01172,0.17773 -0.0047,0.0122 -0.02056,0.0393 -0.09766,0.12109 -0.07384,0.0783 -0.10451,0.0973 -0.109375,0.0996 0,0 -0.002,0 -0.002,0 -0.0072,0.003 -0.02805,0.008 -0.107422,0.008 -0.121841,-1.1e-4 -0.213802,-0.0305 -0.283203,-0.0742 -0.0694,-0.0437 -0.115853,-0.1001 -0.144531,-0.16602 -0.02868,-0.0659 -0.0388,-0.14117 -0.02344,-0.2207 0.01536,-0.0795 0.05569,-0.16592 0.138672,-0.25391 0.05653,-0.0599 0.07624,-0.0793 0.08594,-0.0859 0,0 0.002,-0.002 0.002,-0.002 7.56e-4,-2.9e-4 0.0051,2e-4 0.0059,0 0.0016,-3.3e-4 0.0038,-0.001 0.0059,-0.002 0.01123,-0.003 0.06146,-0.008 0.162109,-0.008 z m -41.482422,0.22656 c 0.125896,0 0.190704,0.007 0.212891,0.0137 0.02219,0.006 0.0198,0.003 0.06055,0.041 0.08629,0.08 0.148541,0.24331 0.146484,0.39257 -0.0021,0.14927 -0.06411,0.24047 -0.09766,0.25782 -0.04276,0.0221 -0.175141,0.0519 -0.302735,0.0488 -0.127593,-0.003 -0.253807,-0.0414 -0.285156,-0.0606 -0.08713,-0.0531 -0.146727,-0.16139 -0.15625,-0.28906 -0.0095,-0.12768 0.03359,-0.25148 0.117188,-0.32618 0.06118,-0.0547 0.06951,-0.0583 0.08984,-0.0644 0.02033,-0.006 0.08254,-0.0137 0.214844,-0.0137 z m 20.667969,2.89258 c 0.547755,-0.0164 0.6233,-0.01 0.916016,0.0879 1.021909,0.34184 1.715027,1.28373 1.716796,2.31054 6.08e-4,0.3264 -0.08182,0.72209 -0.21875,1.07032 -0.136929,0.34822 -0.333345,0.65033 -0.503906,0.80078 -0.304873,0.26893 -0.741161,0.49336 -1.15039,0.58984 -0.221774,0.0523 -0.53054,0.0796 -0.81836,0.0742 -0.287819,-0.005 -0.563338,-0.0476 -0.697265,-0.0957 -0.556738,-0.19984 -1.043996,-0.6406 -1.345704,-1.23438 -0.18952,-0.37303 -0.281298,-0.82248 -0.267578,-1.26172 0.01372,-0.43923 0.133878,-0.86562 0.339844,-1.18945 0.225977,-0.35531 0.677216,-0.75752 1.076172,-0.95508 0.197285,-0.0977 0.28081,-0.13612 0.384766,-0.1582 0.103955,-0.0221 0.25957,-0.0298 0.568359,-0.0391 z m 13.371094,1.86328 c 0.09487,-0.001 0.186806,0.0216 0.253906,0.0625 0.07014,0.0428 0.130809,0.14432 0.142578,0.2832 0.01177,0.13889 -0.03198,0.29449 -0.121094,0.40039 -0.02991,0.0355 -0.04065,0.0483 -0.04492,0.0527 0,0 0,0.002 0,0.002 0,0 -0.002,0 -0.002,0 -0.0093,0.001 -0.0668,0.008 -0.189453,0.008 -0.156237,0 -0.237513,-0.0204 -0.277344,-0.041 -0.03983,-0.0206 -0.06718,-0.0418 -0.115234,-0.13477 -0.01896,-0.0367 -0.04741,-0.16071 -0.04687,-0.27148 2.7e-4,-0.0554 0.0071,-0.1082 0.01563,-0.14649 0.0064,-0.0287 0.01393,-0.0482 0.01563,-0.0527 0,0 0,-0.002 0,-0.002 0.05978,-0.084 0.210242,-0.15799 0.369141,-0.16015 z m -26.449219,0.39258 c 0.120958,0 0.160562,0.007 0.167969,0.01 0,0 0.002,0.002 0.002,0.002 0.0103,0.005 0.03596,0.0242 0.103515,0.0918 0.06246,0.0625 0.08634,0.0958 0.09375,0.11133 0.0074,0.0155 0.0098,0.0224 0.0098,0.0742 0,0.0802 -0.02032,0.1815 -0.05469,0.26758 -0.03436,0.0861 -0.0837,0.1553 -0.113282,0.18164 l -0.05469,0.0254 c -0.03902,0.015 -0.08893,0.0262 -0.115235,0.0293 -0.249283,0.029 -0.474284,-0.17081 -0.474609,-0.42579 -1.73e-4,-0.16829 0.03539,-0.23522 0.08398,-0.27929 0.0486,-0.0441 0.150468,-0.0879 0.351563,-0.0879 z m 33.931641,4.7539 c 0.07389,-0.003 0.149613,0.012 0.224609,0.0508 0.127663,0.066 0.214119,0.21766 0.226562,0.37305 0.01244,0.1554 -0.03887,0.26913 -0.130859,0.31836 -0.137602,0.0736 -0.235474,0.0901 -0.310547,0.082 -0.07507,-0.008 -0.147257,-0.04 -0.24414,-0.13281 -0.05545,-0.0531 -0.08888,-0.11409 -0.105469,-0.18945 -0.01659,-0.0754 -0.0144,-0.16667 0.01758,-0.27344 0.04126,-0.13772 0.163133,-0.22223 0.322266,-0.22852 z m -41.466797,0.11524 c 0.10925,5.7e-4 0.227239,0.0334 0.25,0.0469 0.234508,0.13854 0.264958,0.49444 0.05078,0.6875 -3.53e-4,3.2e-4 -0.0016,-3.1e-4 -0.002,0 -0.0019,4.5e-4 -0.0037,0.001 -0.0059,0.002 -0.0031,6.5e-4 -0.0062,0.001 -0.0098,0.002 -0.004,7.4e-4 -0.0092,0.001 -0.01367,0.002 -0.0676,0.0109 -0.18725,0.0145 -0.296875,0.006 -0.0609,-0.005 -0.119881,-0.0115 -0.166016,-0.0215 -0.04613,-0.01 -0.07999,-0.0243 -0.08203,-0.0254 -0.0397,-0.0207 -0.06626,-0.0373 -0.08008,-0.0469 0,0 -0.002,-0.002 -0.002,-0.002 -0.0025,-0.0184 -0.01139,-0.0729 -0.01172,-0.17969 -7.43e-4,-0.23337 0.07932,-0.37873 0.166016,-0.43945 0.0053,-0.002 0.02722,-0.0111 0.05664,-0.0176 0.03923,-0.009 0.09192,-0.014 0.146485,-0.0137 z m 7.09375,2.54687 c 0.08374,-0.004 0.162978,0.0275 0.234375,0.10742 0.0714,0.08 0.132295,0.21338 0.130859,0.41797 -8.34e-4,0.12613 -0.01305,0.16915 -0.02148,0.18555 -0.0084,0.0164 -0.02966,0.0462 -0.126953,0.11328 -0.04961,0.0342 -0.17118,0.0573 -0.304688,0.0254 -0.133508,-0.032 -0.261583,-0.11453 -0.322266,-0.20117 -0.02701,-0.0386 -0.0356,-0.0668 -0.03125,-0.125 0.0044,-0.0582 0.03132,-0.14656 0.09766,-0.25977 0.11815,-0.2016 0.243737,-0.25848 0.34375,-0.26367 z m 27.125,0.33594 c 0.104287,0 0.123862,0.006 0.132812,0.01 0.0089,0.004 0.04644,0.0308 0.136719,0.12109 0.07975,0.0797 0.11396,0.12482 0.123047,0.14258 0.0091,0.0178 0.0098,0.018 0.0098,0.0762 0,0.0884 -0.02532,0.19259 -0.06641,0.27344 -0.04109,0.0808 -0.09954,0.13345 -0.117187,0.14257 8.4e-5,-4e-5 -0.04979,0.0181 -0.103516,0.0293 -0.05373,0.0112 -0.115821,0.0176 -0.152344,0.0176 -0.08217,0 -0.09094,-0.004 -0.103515,-0.01 -0.01258,-0.006 -0.05347,-0.0359 -0.138672,-0.12109 -0.08947,-0.0895 -0.118197,-0.12819 -0.123047,-0.13867 -0.0048,-0.0105 -0.0098,-0.0276 -0.0098,-0.12695 0,-0.20528 0.04066,-0.29244 0.08203,-0.33399 0.04137,-0.0416 0.127061,-0.082 0.330078,-0.082 z m -6.697266,3.39844 c 0.05911,-0.003 0.121014,0.006 0.220703,0.041 0.04898,0.0171 0.06435,0.0287 0.0918,0.084 0.02745,0.0553 0.05273,0.1637 0.05273,0.32812 0,0.13278 -0.01583,0.18793 -0.02344,0.20508 0,0 0,0.002 0,0.002 0,0 -0.002,0.002 -0.002,0.002 -0.0085,0.0112 -0.04073,0.0414 -0.166016,0.0937 -0.147115,0.0615 -0.259648,0.0621 -0.345703,0.0332 -0.08606,-0.0289 -0.161383,-0.0888 -0.226562,-0.21484 -0.05195,-0.10045 -0.05352,-0.19709 -0.02148,-0.28711 0.03203,-0.09 0.100328,-0.1712 0.212891,-0.22461 0.09232,-0.0438 0.150618,-0.0598 0.207031,-0.0625 z m -13.302734,0.16601 c 0.267989,4.1e-4 0.483898,0.21608 0.484375,0.45117 9.2e-5,0.0534 -0.0039,0.0645 -0.01367,0.0859 -0.0098,0.0215 -0.03381,0.0614 -0.0957,0.12891 -0.07513,0.082 -0.09908,0.0981 -0.115235,0.10547 -0.01615,0.007 -0.06573,0.0203 -0.197265,0.0312 -0.105544,0.009 -0.163743,0.008 -0.179688,0.008 -9.33e-4,-7.5e-4 -0.0025,-9.2e-4 -0.0039,-0.002 -0.01727,-0.0131 -0.05965,-0.0538 -0.125,-0.11914 -0.09464,-0.0947 -0.124264,-0.1363 -0.128906,-0.14649 -0.0046,-0.0102 -0.0098,-0.029 -0.0098,-0.13672 0,-0.10712 0.0059,-0.1281 0.0098,-0.13672 0.0039,-0.009 0.03026,-0.0459 0.121093,-0.13671 0.08781,-0.0878 0.129155,-0.1176 0.140625,-0.12305 0.01147,-0.005 0.02287,-0.01 0.113282,-0.01 z m 21.355468,3.84766 c 0.110171,0 0.168112,0.006 0.185547,0.01 0.02615,0.006 0.01876,-7.7e-4 0.115235,0.0957 0.07318,0.0732 0.0901,0.0987 0.09375,0.10742 0.0036,0.009 0.0098,0.0353 0.0098,0.13477 0,0.108 -0.0216,0.21236 -0.05273,0.28515 -0.02473,0.0578 -0.05533,0.0902 -0.06445,0.0996 -6.5e-4,1.6e-4 -0.003,0.002 -0.0039,0.002 -0.0114,0.003 -0.04068,0.0113 -0.07617,0.0156 -0.0552,0.007 -0.127792,0.009 -0.199219,0.006 -0.07143,-0.003 -0.141863,-0.011 -0.193359,-0.0215 -0.02966,-0.006 -0.05703,-0.0161 -0.06641,-0.0195 -1.49e-4,-1.5e-4 -0.0019,1.1e-4 -0.002,0 C 56.992166,689.205 56.93595,689.1126 56.912109,689 c -0.02535,-0.11975 -0.01179,-0.25101 0.03516,-0.3418 0.02354,-0.0455 0.03879,-0.068 0.04883,-0.0781 0.0066,-0.006 0.01399,-0.009 0.02344,-0.0137 0.02519,-0.0115 0.111584,-0.0293 0.285156,-0.0293 z m -29.570312,0.11328 c 0.165424,0 0.267631,0.0457 0.332031,0.10742 0.0644,0.0617 0.105469,0.14867 0.105469,0.29883 0,0.0959 -0.02131,0.16882 -0.05273,0.22266 -0.03142,0.0538 -0.07178,0.0912 -0.134766,0.12109 -0.01849,0.009 -0.07918,0.0299 -0.140625,0.043 -0.06145,0.013 -0.128072,0.0195 -0.162109,0.0195 -0.08007,0 -0.09773,-0.005 -0.109375,-0.01 -0.01164,-0.005 -0.04075,-0.0251 -0.109375,-0.0937 -0.06753,-0.0675 -0.08648,-0.095 -0.0918,-0.10546 -0.003,-0.008 -0.01172,-0.0482 -0.01172,-0.16993 0,-0.12638 0.0069,-0.15932 0.0098,-0.16601 0.0028,-0.007 0.02646,-0.0401 0.121093,-0.13477 0.08521,-0.0852 0.126939,-0.11643 0.140625,-0.12304 0.01369,-0.007 0.02234,-0.01 0.103516,-0.01 z m 14.523437,0.11914 c 0.08378,-0.003 0.171495,0.0166 0.25,0.0644 0.113291,0.0691 0.195144,0.22897 0.203125,0.38868 0.008,0.1597 -0.05003,0.26982 -0.125,0.30859 -0.03227,0.0167 -0.09333,0.0347 -0.167968,0.041 -0.07464,0.006 -0.160814,7.6e-4 -0.240235,-0.0137 -0.07942,-0.0144 -0.152652,-0.038 -0.199218,-0.0625 -0.03019,-0.0159 -0.04722,-0.0322 -0.05273,-0.0371 -1.13e-4,-3.7e-4 1.25e-4,-0.002 0,-0.002 -0.0033,-0.0109 -0.0094,-0.0347 -0.01367,-0.0645 -0.0067,-0.0468 -0.01157,-0.10892 -0.0098,-0.17188 0.0018,-0.063 0.0094,-0.12717 0.01953,-0.17968 0.01014,-0.0525 0.02487,-0.093 0.0293,-0.10157 0.0496,-0.0959 0.165714,-0.16495 0.30664,-0.16992 z m 6.328125,4.86133 c 0.100499,0 0.116388,0.005 0.126954,0.01 0.01056,0.005 0.05192,0.0343 0.144531,0.12696 0.07343,0.0734 0.112445,0.12462 0.126953,0.15039 0.0073,0.0129 0.01048,0.019 0.01172,0.0234 0,0 0,0.002 0,0.002 3.61e-4,0.003 0,0.007 0,0.0137 0,0.0673 -0.02256,0.1601 -0.06641,0.24024 -0.04385,0.0801 -0.107647,0.14453 -0.158203,0.17578 -0.140904,0.0872 -0.294717,0.0886 -0.433593,0.004 -0.09184,-0.056 -0.112866,-0.0837 -0.126954,-0.11133 -0.01409,-0.0276 -0.0293,-0.0868 -0.0293,-0.22265 0,-0.20214 0.04082,-0.28846 0.08203,-0.33008 0.04121,-0.0416 0.124181,-0.082 0.322265,-0.082 z m -12.019531,0.0566 c 0.126386,0 0.159332,0.007 0.166016,0.01 0.0067,0.003 0.04012,0.0264 0.134765,0.12109 0.08198,0.082 0.115031,0.12665 0.123047,0.14258 0.008,0.0159 0.0098,0.0177 0.0098,0.084 -7.4e-5,0.0736 -0.02378,0.16405 -0.06836,0.24024 -0.04458,0.0762 -0.108782,0.13554 -0.160157,0.16211 -0.123126,0.0637 -0.271763,0.061 -0.380859,0.0137 -0.07273,-0.0315 -0.124329,-0.0788 -0.154297,-0.13672 9.48e-4,0.002 -0.01915,-0.0548 -0.03125,-0.11524 -0.0121,-0.0605 -0.01953,-0.13027 -0.01953,-0.17578 0,-0.0986 0.0059,-0.12381 0.0098,-0.13281 0.0038,-0.009 0.02213,-0.0358 0.0957,-0.10937 0.06755,-0.0675 0.09502,-0.0865 0.105468,-0.0918 0.0077,-0.003 0.04815,-0.0117 0.169922,-0.0117 z"
       id="path4-1-7-7-9"
       sodipodi:nodetypes="cscssssssssssssssssssssssscsssscssssssssscsccsssscscssssssccccsssssssccsssssssscsssscsssssccsssssssssscsssssssscssssssscsssssccccssscscscssscsssssssscsssscssssssccsscssscssscssssssscsssssssssssscssssssscssscssscsssssscsssscccsscssssssssssssscssssscsscssssssssssssscssscssssssscssscsssssscsscsssscsssssssssssssssssccsssssscscssscsssssssssssssssssssssssscssssssscsscsssssssssssssssccscssssssssssssssssssssssssssssssssssssssccsssssssssssssssssssssscsssscsccsccsssssssscsssssssssssscsscsscsccssscsssssssscssscssssscscsccsssssssscccssssssssssssssssssscssssccsssscscssssssssss"
       inkscape:path-effect="#path-effect30-9-5"
       inkscape:original-d="m 36.176616,695.47121 c -0.41378,-0.11909 -0.80849,-0.49257 -0.9669,-0.91489 -0.0785,-0.20932 -0.0761,-0.67828 0.005,-0.9485 0.10178,-0.33971 0.3558,-0.59449 0.87473,-0.87736 0.26431,-0.14408 0.52049,-0.32289 0.56928,-0.39737 0.14877,-0.22704 2.62202,-8.92652 2.62202,-9.22275 0,-0.20363 -0.44441,-1.13474 -0.61551,-1.28958 -0.0861,-0.0779 -0.13553,-0.0868 -0.22278,-0.0402 -0.13809,0.0739 -0.48193,0.61254 -0.89007,1.39431 -0.33817,0.64774 -0.36906,0.82728 -0.22439,1.30418 0.10649,0.35103 0.1095,0.93123 0.006,1.17867 -0.11475,0.27462 -0.45625,0.63042 -0.73426,0.76501 -0.26847,0.12996 -0.72085,0.15325 -1.0737,0.0553 -0.44512,-0.1236 -1.05502,-0.90636 -1.05502,-1.35404 0,-0.33727 0.40739,-0.96533 0.77739,-1.19848 0.11399,-0.0718 0.4362,-0.20864 0.71603,-0.30403 0.40509,-0.13808 0.54,-0.21303 0.66197,-0.36779 0.0843,-0.10691 0.61842,-1.02191 1.18702,-2.03334 1.23438,-2.19573 1.47023,-2.57239 1.67745,-2.67895 0.0866,-0.0446 0.61588,-0.26509 1.17606,-0.49008 0.56018,-0.22498 1.06431,-0.44932 1.12028,-0.49853 0.0647,-0.0569 0.0956,-0.14994 0.0849,-0.25546 -0.0151,-0.14881 -0.0579,-0.18179 -0.41298,-0.31857 -0.56605,-0.21805 -0.73976,-0.31477 -1.20979,-0.6736 -0.68768,-0.52498 -0.76242,-0.57344 -0.88444,-0.57344 -0.11225,0 -1.45653,0.72108 -2.24382,1.20359 l -0.37718,0.23117 -0.0336,0.59819 c -0.10114,1.80128 -0.14556,2.33123 -0.20463,2.4416 -0.10564,0.19739 -0.79574,0.94423 -3.39855,3.67801 -1.35052,1.41848 -2.78651,2.93048 -3.19109,3.35999 l -0.73559,0.78093 -0.0317,0.77542 c -0.0299,0.73041 -0.0417,0.79322 -0.20404,1.08184 -0.24593,0.43722 -0.58306,0.63885 -1.06818,0.63885 -0.30205,0 -0.42497,-0.0323 -0.73896,-0.19451 -0.6401,-0.33056 -0.91835,-0.91478 -0.76405,-1.60423 0.15717,-0.70233 0.61595,-1.03613 1.52191,-1.10732 0.36721,-0.0288 0.61141,-0.077 0.70638,-0.13921 0.19792,-0.12968 5.43029,-5.56283 6.46046,-6.70836 0.2099,-0.23341 0.49376,-0.58039 0.63079,-0.77107 l 0.24915,-0.34669 v -0.76712 c 0,-0.42194 -0.0248,-0.83248 -0.0552,-0.91231 -0.0718,-0.18877 -0.23213,-0.1879 -0.59598,0.003 -0.98254,0.51621 -4.60855,2.62664 -4.76328,2.77234 -0.14179,0.13353 -0.18735,0.22391 -0.18735,0.37168 0,0.31588 -0.16134,0.76809 -0.35118,0.9843 -0.0971,0.11061 -0.33155,0.28128 -0.52097,0.37927 -0.28818,0.14909 -0.40906,0.17848 -0.74049,0.18005 -0.33,0.002 -0.43923,-0.0235 -0.65468,-0.15015 -0.43798,-0.25749 -0.67586,-0.68955 -0.6738,-1.22382 0.002,-0.4028 0.15277,-0.75004 0.46859,-1.07608 0.4739,-0.48922 0.79582,-0.55797 1.46923,-0.31376 0.22504,0.0816 0.47499,0.16028 0.55544,0.17481 0.16455,0.0297 0.55533,-0.17868 3.87118,-2.06443 3.43295,-1.95235 4.1589,-2.39444 4.1589,-2.5327 0,-0.0371 -0.3534,-0.36385 -0.78533,-0.726 l -0.78534,-0.65844 -0.69999,0.005 c -0.38499,0.003 -0.82469,0.0218 -0.97712,0.0424 l -0.27713,0.0375 -0.43349,0.77305 c -0.64972,1.15862 -0.68949,1.21066 -1.004,1.3136 -0.32217,0.10544 -3.48634,0.92383 -6.92019,1.78984 -1.35376,0.34143 -2.51684,0.63625 -2.5846,0.65516 -0.0785,0.0219 -0.19575,0.17244 -0.32331,0.4152 -0.24506,0.46634 -0.43046,0.65962 -0.79833,0.83227 -0.47027,0.22071 -1.08612,0.15361 -1.46629,-0.15976 -0.32968,-0.27174 -0.5102,-0.67668 -0.51234,-1.14924 -0.002,-0.33942 0.0232,-0.44061 0.17271,-0.7073 0.2139,-0.38145 0.57966,-0.64547 1.02117,-0.73713 0.43199,-0.0897 0.68173,-0.0119 1.21017,0.37709 0.40151,0.29552 0.43704,0.31008 0.68899,0.28227 0.70898,-0.0782 9.04984,-2.16235 9.29799,-2.32325 0.1485,-0.0963 0.64972,-0.98422 0.64973,-1.15101 0,-0.0861 -0.048,-0.14698 -0.14514,-0.1839 -0.19724,-0.075 -2.16976,-0.0708 -2.38742,0.005 -0.0951,0.0332 -0.3022,0.20892 -0.4602,0.39058 -0.33289,0.38272 -0.76149,0.62439 -1.10653,0.62392 -0.44033,-5.6e-4 -0.66229,-0.1031 -1.0273,-0.47437 -0.27975,-0.28456 -0.35858,-0.40671 -0.41548,-0.64391 -0.20713,-0.8634 0.39103,-1.71861 1.26307,-1.80584 0.46584,-0.0466 0.84268,0.12772 1.29537,0.59923 l 0.37447,0.39004 0.58314,0.0321 c 0.32072,0.0177 1.60894,0.0457 2.86271,0.0624 1.77274,0.0235 2.32001,0.0478 2.4614,0.1092 0.1,0.0434 0.47463,0.32476 0.83253,0.62517 0.82712,0.69429 1.1068,0.88 1.32527,0.87996 l 0.1742,-3e-5 -0.001,-1.52704 c -10e-4,-1.27244 -0.0153,-1.54004 -0.0849,-1.60505 -0.10056,-0.0939 -1.3283,-0.8329 -1.92736,-1.16011 -0.23606,-0.12895 -0.50403,-0.23444 -0.5955,-0.23444 -0.0947,0 -0.36062,0.11231 -0.61759,0.26084 -1.82116,1.05259 -1.90469,1.08643 -2.4287,0.98393 -0.49815,-0.0975 -3.7947,-0.88303 -6.31212,-1.5042 -2.55787,-0.63116 -3.61765,-0.87225 -3.83417,-0.87225 -0.10046,0 -0.25805,0.0834 -0.43726,0.23154 -0.41873,0.34602 -0.6534,0.44746 -1.03511,0.44746 -0.70868,0 -1.2767,-0.3784 -1.45148,-0.96695 -0.11096,-0.37367 -0.11104,-0.52133 -5.5e-4,-0.8936 0.11307,-0.38073 0.52027,-0.81711 0.84551,-0.90609 0.36494,-0.0998 0.98983,-0.0786 1.21743,0.0414 0.18282,0.0964 0.5502,0.53563 0.82057,0.98112 0.0865,0.14258 0.18921,0.21257 0.42438,0.28929 0.40028,0.13057 7.43978,1.88853 8.63351,2.15602 0.50095,0.11225 1.06864,0.22059 1.26152,0.24075 0.32802,0.0343 0.37707,0.0231 0.75841,-0.17224 0.46255,-0.237 1.04727,-0.63846 1.13469,-0.77908 0.0424,-0.0682 0.0372,-0.12009 -0.0189,-0.18772 -0.11148,-0.13434 -4.09893,-2.50141 -4.85094,-2.87968 -0.36272,-0.18245 -0.40522,-0.18277 -1.00942,-0.008 -0.41078,0.11904 -0.52533,0.13195 -0.74131,0.0836 -0.37753,-0.0846 -0.64657,-0.24033 -0.91121,-0.52744 -0.28325,-0.30729 -0.31884,-0.42853 -0.28421,-0.9682 0.0336,-0.5232 0.22133,-0.87077 0.60013,-1.111 0.65575,-0.41586 1.33028,-0.33463 1.83191,0.22062 0.17959,0.19878 0.44098,0.75083 0.44182,0.93311 10e-4,0.25674 0.1349,0.50272 0.35601,0.65484 0.34369,0.23647 6.61281,3.88696 7.07448,4.11945 0.22732,0.11448 0.45022,0.18814 0.53843,0.17794 0.17214,-0.0199 0.21865,-0.15818 0.38213,-1.13585 0.13486,-0.80652 0.10081,-1.00982 -0.27428,-1.63736 -0.17294,-0.28934 -0.38267,-0.58973 -0.46607,-0.66753 l -0.1516,-0.14151 h -1.18581 -1.1858 l -0.46515,-0.48096 c -0.25583,-0.26453 -1.20428,-1.24485 -2.10767,-2.17848 -0.90339,-0.93363 -2.28299,-2.36053 -3.06577,-3.17089 l -1.42324,-1.47337 -0.61146,0.002 c -0.5817,0.002 -0.62653,-0.006 -0.92116,-0.17347 -0.37408,-0.21217 -0.64518,-0.57977 -0.73997,-1.00333 -0.0572,-0.25563 -0.0527,-0.35166 0.03,-0.63614 0.17543,-0.6038 0.82663,-1.09893 1.44531,-1.09893 0.27693,0 0.83968,0.33034 1.04732,0.61477 0.23335,0.31968 0.30946,0.64494 0.30946,1.32249 v 0.5171 l 0.49646,0.51277 c 0.27305,0.28203 1.38704,1.43934 2.47554,2.57181 2.24997,2.34086 3.57707,3.61175 3.97345,3.80516 0.35403,0.17273 1.02472,0.2174 1.23136,0.082 0.27504,-0.18021 0.12279,-0.63914 -0.47451,-1.43039 -0.43296,-0.57355 -0.78519,-0.88873 -1.12911,-1.01035 -0.96374,-0.34081 -1.23314,-0.63074 -1.3451,-1.44757 -0.0704,-0.51374 0.22439,-1.03803 0.73764,-1.31185 0.31787,-0.16958 1.03186,-0.16786 1.36187,0.003 0.66854,0.34669 0.92573,1.08467 0.65071,1.86714 -0.22744,0.64714 -0.26514,0.5561 1.3298,3.21168 0.59811,0.99587 1.12924,1.89217 1.18027,1.99177 0.12564,0.24521 0.11607,0.5965 -0.0491,1.79934 -0.0769,0.56018 -0.1401,1.10126 -0.14044,1.20241 -10e-4,0.29733 0.22463,0.25084 0.85453,-0.17609 0.55481,-0.37602 1.06698,-0.6532 1.4155,-0.76604 0.27747,-0.0898 0.36836,-0.20466 0.46954,-0.59311 0.1278,-0.49064 0.22374,-1.70066 0.17559,-2.2145 -0.0363,-0.38728 -0.0623,-0.46433 -0.19938,-0.58999 -0.0867,-0.0795 -0.64311,-0.41183 -1.23648,-0.73851 l -1.07884,-0.59398 -0.11287,-0.29493 c -0.13222,-0.34588 -0.69674,-2.23062 -1.84368,-6.15594 -1.3132,-4.49429 -1.18164,-4.16891 -1.75918,-4.35096 -0.6235,-0.19655 -1.09999,-0.84806 -1.09821,-1.50158 0.001,-0.44293 0.39717,-1.01735 0.86889,-1.26053 0.50492,-0.26028 1.29947,-0.0831 1.64219,0.36624 0.48056,0.63006 0.49309,1.32167 0.0356,1.9642 -0.14873,0.20887 -0.14783,0.55661 0.003,1.15184 0.21889,0.86397 2.26855,7.82571 2.60561,8.85006 0.14313,0.435 0.20926,0.55469 0.39365,0.71253 0.26909,0.23032 1.51014,0.94313 1.64207,0.94313 0.14509,0 0.16281,-0.15992 0.16306,-1.47118 5.5e-4,-2.19942 -0.17292,-4.52393 -0.36882,-4.94608 -0.0446,-0.0961 -0.19533,-0.30855 -0.33495,-0.4721 -0.56521,-0.66208 -0.53297,-1.39028 0.0882,-1.99316 0.29662,-0.28786 0.68337,-0.41697 1.15838,-0.38673 0.42433,0.027 0.72149,0.20492 1.00741,0.60311 0.15593,0.21717 0.17891,0.29893 0.1972,0.70174 0.0298,0.65682 -0.0328,0.8086 -0.52306,1.2668 l -0.41785,0.39056 -0.0397,0.81944 c -0.0678,1.39928 -0.006,7.62962 0.0784,7.89241 0.16179,0.50422 0.27574,0.51758 1.20988,0.14181 0.67495,-0.2715 0.89047,-0.47082 1.30754,-1.20927 0.38222,-0.67674 0.36723,-0.77642 -0.27756,-1.84661 -0.58835,-0.97648 -0.57331,-0.90595 -0.36597,-1.71567 0.0971,-0.37903 0.69652,-2.50623 1.33216,-4.72712 0.63563,-2.22088 1.15569,-4.11314 1.15569,-4.20501 0,-0.094 -0.12962,-0.40674 -0.29634,-0.71506 -0.26511,-0.49023 -0.29616,-0.58382 -0.29451,-0.88752 0.003,-0.53199 0.3014,-0.98124 0.84083,-1.26543 0.47325,-0.24932 0.93756,-0.21005 1.42339,0.12038 0.40224,0.27357 0.61326,0.68429 0.61602,1.19897 0.004,0.69572 -0.34741,1.15216 -1.10073,1.43083 -0.29264,0.10825 -0.31824,0.13347 -0.43796,0.43128 -0.20626,0.51308 -2.2142,7.4832 -2.43103,8.4388 -0.19019,0.83814 -0.16657,1.03617 0.18611,1.56054 0.35938,0.53431 0.44211,0.58414 0.61468,0.37028 0.1479,-0.18328 0.93757,-1.60626 1.04724,-1.88711 0.0795,-0.20353 0.0637,-0.38376 -0.0802,-0.91438 -0.15072,-0.55582 -0.0241,-1.08641 0.35727,-1.49689 0.6452,-0.69446 1.87113,-0.46224 2.34233,0.44371 0.17089,0.32857 0.1574,0.82156 -0.0328,1.19683 -0.24745,0.48833 -0.64326,0.74385 -1.35479,0.87461 l -0.38288,0.0704 -0.27459,0.42857 c -0.15103,0.23571 -0.71937,1.21791 -1.26298,2.18267 -0.5436,0.96475 -1.07925,1.89414 -1.19033,2.0653 l -0.20195,0.31122 -1.18506,0.46881 c -1.13814,0.45026 -1.42843,0.60701 -1.42843,0.7713 0,0.11065 0.0958,0.17212 0.53755,0.34508 0.51817,0.20286 0.974,0.47964 1.45913,0.88595 0.50505,0.42301 0.61584,0.42759 1.3186,0.0545 0.67598,-0.35888 1.53947,-0.92067 1.74527,-1.13548 l 0.16419,-0.17137 0.0411,-1.33316 c 0.0399,-1.29342 0.0453,-1.33942 0.18197,-1.54303 0.16639,-0.24788 0.50006,-0.60433 4.11605,-4.39706 1.51321,-1.58718 2.85735,-3.00286 2.98698,-3.14596 l 0.23569,-0.26018 -0.007,-0.67699 c -0.005,-0.56715 0.012,-0.71916 0.10835,-0.93692 0.15166,-0.34286 0.51946,-0.69238 0.84548,-0.80347 0.71513,-0.24366 1.36744,0.0277 1.70884,0.71093 0.24473,0.48974 0.24196,0.8702 -0.01,1.35666 -0.30102,0.5815 -0.68072,0.78121 -1.49044,0.78393 -0.50809,0.002 -0.55333,0.0339 -1.72382,1.22614 -1.74397,1.77641 -5.23217,5.46845 -5.57875,5.90477 -0.43517,0.54785 -0.72923,1.53796 -0.68901,2.31993 0.0171,0.33299 0.0311,0.36952 0.14782,0.38608 0.0854,0.0121 0.86832,-0.39678 2.31993,-1.21163 2.8642,-1.60779 2.91149,-1.6353 3.02079,-1.75759 0.0514,-0.0575 0.15189,-0.31884 0.22328,-0.5807 0.16519,-0.60599 0.47118,-1.04077 0.88944,-1.26384 0.33711,-0.17979 0.44501,-0.18826 0.8534,-0.067 0.40285,0.11963 0.82388,0.38717 0.96265,0.61172 0.15398,0.24913 0.20239,0.73068 0.12091,1.20256 -0.0811,0.46993 -0.14857,0.58156 -0.49768,0.82395 -0.25406,0.17639 -0.2958,0.18674 -0.72231,0.17909 -0.27167,-0.005 -0.55448,-0.0469 -0.7073,-0.10502 -0.47617,-0.18121 -0.5751,-0.17331 -1.08552,0.0866 -1.1763,0.59903 -6.8932,3.87424 -7.11312,4.0751 -0.0967,0.0883 -0.17576,0.21094 -0.17576,0.27255 0,0.15737 0.23992,0.42459 0.7349,0.8185 0.63826,0.50795 0.87826,0.60241 1.53233,0.60307 0.69152,8.3e-4 1.07549,-0.10727 1.26173,-0.35482 0.0754,-0.1002 0.31582,-0.54037 0.53432,-0.97817 l 0.39726,-0.796 1.15061,-0.29484 c 0.63284,-0.16216 2.5618,-0.65079 4.28658,-1.08584 1.72478,-0.43504 3.42531,-0.87061 3.77896,-0.96792 0.70423,-0.19379 0.67174,-0.16917 1.10785,-0.83942 0.54321,-0.83487 1.23381,-1.04791 1.96858,-0.60729 0.39318,0.23579 0.60428,0.57025 0.65278,1.03427 0.0717,0.686 -0.21419,1.21339 -0.82571,1.52327 -0.58548,0.29669 -0.99163,0.24311 -1.49479,-0.19719 -0.23686,-0.20727 -0.3699,-0.28319 -0.49625,-0.28319 -0.18795,0 -2.53669,0.55546 -5.87524,1.38945 -2.87954,0.71932 -3.56763,0.91343 -3.70912,1.04635 -0.16347,0.15358 -0.58096,0.89363 -0.62316,1.10465 -0.0636,0.31812 0.002,0.33083 1.36407,0.26601 l 1.21568,-0.0578 0.47517,-0.45619 c 0.5439,-0.52217 0.75345,-0.61105 1.30565,-0.55381 0.49372,0.0512 0.78818,0.25266 1.04202,0.71299 0.17657,0.32019 0.20227,0.41539 0.19859,0.73558 -0.003,0.25585 -0.0402,0.43746 -0.12255,0.59668 -0.16792,0.32486 -0.57895,0.68472 -0.87245,0.76383 -0.53778,0.14497 -1.35902,-0.11597 -1.61387,-0.51278 -0.28588,-0.44513 -0.0679,-0.39953 -2.16867,-0.45371 -4.02911,-0.10389 -4.00666,-0.10284 -4.18812,-0.19668 -0.0943,-0.0488 -0.43185,-0.31219 -0.75011,-0.5854 -0.93347,-0.80133 -1.10794,-0.92167 -1.30792,-0.90219 l -0.17567,0.0171 -0.0316,1.47118 c -0.0255,1.18467 -0.0166,1.4949 0.0453,1.59297 0.0886,0.1402 0.78533,0.59137 1.68249,1.08944 0.43205,0.23985 0.6818,0.34474 0.82047,0.34455 0.22463,-2.8e-4 0.65916,-0.21018 1.63841,-0.7913 0.35999,-0.21363 0.75638,-0.41777 0.88087,-0.45364 0.26624,-0.0767 0.31447,-0.0663 5.74325,1.24538 4.20393,1.01572 4.712,1.13151 4.96489,1.13151 0.15787,0 0.2596,-0.0576 0.5158,-0.29209 0.70086,-0.64145 1.21027,-0.6404 1.94119,0.004 0.35915,0.31663 0.51322,0.6511 0.52155,1.1322 0.006,0.33152 -0.0155,0.41657 -0.16316,0.65369 -0.11813,0.18969 -0.26439,0.32602 -0.48096,0.44833 -0.28535,0.16115 -0.35353,0.1756 -0.82047,0.17392 -0.41112,-10e-4 -0.55423,-0.0255 -0.74262,-0.12484 -0.30285,-0.15961 -0.4977,-0.39605 -0.61336,-0.74426 -0.0512,-0.15418 -0.1287,-0.30986 -0.1722,-0.34596 -0.0882,-0.0732 -2.84737,-0.77363 -7.15743,-1.8169 -1.92031,-0.46483 -2.96893,-0.69316 -3.19729,-0.6962 -0.30159,-0.004 -0.38828,0.0232 -0.77077,0.24189 -0.59447,0.33991 -0.97979,0.64078 -1.00013,0.78091 -0.021,0.14497 0.25982,0.33002 2.38142,1.56909 1.796,1.04891 2.75176,1.56248 2.90776,1.56248 0.0625,0 0.3127,-0.0509 0.55606,-0.11316 0.50918,-0.13023 0.76401,-0.13847 1.05607,-0.0342 0.27544,0.0984 0.50468,0.29022 0.71695,0.59999 0.41469,0.60516 0.34205,1.21962 -0.20753,1.75557 -0.33638,0.32803 -0.60926,0.4512 -0.99965,0.4512 -0.71341,0 -1.32501,-0.57645 -1.50575,-1.41921 -0.11464,-0.53455 -0.54652,-0.85005 -3.36046,-2.45487 -1.02699,-0.58571 -2.22991,-1.2914 -2.67316,-1.56819 -1.1958,-0.74675 -1.61682,-0.9625 -1.83683,-0.9413 -0.25165,0.0242 -0.30467,0.15421 -0.45341,1.11133 -0.1426,0.91763 -0.13386,0.97254 0.26765,1.68046 0.46261,0.81566 0.38697,0.76868 1.33211,0.82726 0.44956,0.0279 1.02108,0.0744 1.27004,0.1035 l 0.45267,0.0528 7.01639,7.06559 0.60662,0.058 c 0.42983,0.0411 0.69545,0.0987 0.9114,0.19756 0.71799,0.3287 1.00849,1.20583 0.6298,1.90161 -0.17872,0.32836 -0.53669,0.63906 -0.85875,0.74535 -0.43469,0.14346 -1.05576,-0.0344 -1.41968,-0.40667 -0.32907,-0.33658 -0.40693,-0.57835 -0.40693,-1.26349 v -0.61184 l -0.20704,-0.2332 c -2.16992,-2.2851 -4.35801,-4.55298 -6.54143,-6.8252 h -0.63953 c -0.72216,0 -0.92981,0.0515 -0.92981,0.23081 0,0.15641 0.29388,0.71062 0.80774,1.52329 l 0.41146,0.65071 0.47654,0.0726 c 0.26349,0.0401 0.57703,0.12867 0.70131,0.19805 0.62832,0.3507 0.84771,1.32034 0.45367,2.00506 -0.25635,0.44545 -0.88411,0.74816 -1.39322,0.67181 -0.37424,-0.0561 -0.81488,-0.33716 -1.00931,-0.64375 -0.31318,-0.49383 -0.33748,-0.84658 -0.10489,-1.5226 0.0602,-0.17485 0.10937,-0.38989 0.10937,-0.47787 0,-0.10825 -0.42901,-0.8737 -1.32722,-2.36803 -0.76844,-1.27843 -1.34358,-2.29526 -1.36608,-2.41517 -0.0214,-0.11391 -0.003,-0.54025 0.04,-0.94741 0.0433,-0.40717 0.0788,-1.02039 0.0788,-1.36272 0,-0.58394 -0.007,-0.62345 -0.11576,-0.63899 -0.0686,-0.01 -0.3568,0.1429 -0.70729,0.37476 -0.53132,0.35148 -0.80224,0.48281 -1.55347,0.75304 -0.31574,0.11357 -0.36921,0.30918 -0.40772,1.49162 -0.0385,1.18286 0.032,1.75593 0.23664,1.92408 0.0759,0.0624 0.56137,0.34245 1.07878,0.62242 0.51741,0.27996 1.01707,0.57268 1.11034,0.65048 0.3713,0.30971 2.96169,9.92159 3.24482,10.4691 0.0616,0.11911 0.20454,0.22077 0.50676,0.36041 0.55758,0.25762 0.77338,0.43023 0.95498,0.76391 0.32585,0.59868 0.2538,1.14583 -0.21414,1.62639 -0.22693,0.23305 -0.35527,0.31387 -0.61934,0.38998 -0.5798,0.16712 -1.13309,0.0185 -1.50417,-0.40418 -0.2627,-0.2992 -0.35893,-0.56041 -0.36232,-0.98351 -0.002,-0.32387 0.0255,-0.42341 0.23541,-0.83336 0.13111,-0.25606 0.23837,-0.54003 0.23837,-0.63104 0,-0.34465 -2.70439,-9.55565 -2.94277,-10.02292 -0.0835,-0.16374 -0.22461,-0.28505 -0.57843,-0.49742 -0.72096,-0.43271 -1.27282,-0.70635 -1.34036,-0.66461 -0.11292,0.0698 -0.0368,5.68721 0.085,6.26948 0.0223,0.10661 0.12536,0.21718 0.32757,0.35139 0.40643,0.26978 0.56835,0.56948 0.56676,1.0491 -0.002,0.62692 -0.3051,1.15919 -0.82153,1.44307 -0.53928,0.29644 -1.17906,0.20138 -1.58493,-0.23548 -0.28752,-0.30948 -0.40948,-0.63256 -0.41311,-1.09442 -0.003,-0.37386 0.0176,-0.46125 0.17232,-0.73408 0.11351,-0.20012 0.27368,-0.37714 0.45267,-0.50028 0.15236,-0.10482 0.29938,-0.24554 0.32671,-0.31272 0.0646,-0.15871 0.11903,-7.04706 0.0648,-8.20349 -0.041,-0.87404 -0.0435,-0.88718 -0.17079,-0.88718 -0.15492,0 -1.36943,0.41273 -1.67853,0.57042 -0.26451,0.13494 -0.49588,0.43872 -0.7938,1.04222 -0.30199,0.61177 -0.28555,0.7745 0.15656,1.54966 0.19202,0.33666 0.38895,0.61197 0.46138,0.64503 0.0771,0.0352 0.13947,0.1275 0.15998,0.23681 0.0801,0.42676 -0.0947,1.10766 -1.75001,6.81995 -0.51991,1.7941 -0.82799,2.99396 -0.82799,3.22473 0,0.0791 0.0507,0.23249 0.11265,0.34093 0.38277,0.66996 0.41619,0.76022 0.41873,1.13079 0.003,0.4414 -0.13413,0.74187 -0.50169,1.09909 -0.35302,0.3431 -0.82084,0.45174 -1.32298,0.30722 z m 0.73276,-0.75835 c 0.22514,-0.11642 0.3903,-0.39925 0.39057,-0.66877 1.4e-4,-0.17892 -0.0399,-0.25893 -0.21947,-0.43852 -0.19905,-0.19905 -0.24741,-0.21968 -0.51491,-0.21968 -0.26032,0 -0.31799,0.0228 -0.48762,0.19238 -0.16362,0.16362 -0.19239,0.23172 -0.19239,0.45548 0,0.1447 0.0385,0.33758 0.0856,0.42861 0.16169,0.31265 0.59455,0.42823 0.93824,0.2505 z m 12.02019,-0.083 c 0.21071,-0.13023 0.36635,-0.41594 0.36635,-0.67252 0,-0.12913 -0.0597,-0.23501 -0.22634,-0.40168 -0.19772,-0.19773 -0.25887,-0.22634 -0.48377,-0.22634 -0.48658,0 -0.70449,0.22075 -0.70449,0.71368 0,0.31504 0.0681,0.44873 0.30068,0.59057 0.23216,0.14155 0.51479,0.14015 0.74757,-0.004 z m -6.20557,-4.83278 c 0.41023,-0.21214 0.37421,-0.95515 -0.0591,-1.21934 -0.34588,-0.21088 -0.80869,-0.10539 -0.97852,0.22303 -0.0996,0.19262 -0.11334,0.63691 -0.0248,0.80235 0.13191,0.24649 0.74456,0.35834 1.06243,0.19396 z m -14.61062,-0.12504 c 0.22953,-0.10892 0.35971,-0.33141 0.35971,-0.61479 0,-0.43257 -0.28721,-0.7073 -0.73944,-0.7073 -0.19846,0 -0.27058,0.0348 -0.45548,0.21968 -0.19904,0.19905 -0.21967,0.24741 -0.21967,0.51491 0,0.26031 0.0228,0.31799 0.19238,0.48762 0.1577,0.1577 0.23522,0.19239 0.42997,0.19239 0.13067,0 0.32531,-0.0416 0.43253,-0.0925 z m 29.61665,-0.13551 c 0.16401,-0.0878 0.27979,-0.35753 0.27979,-0.65188 0,-0.22376 -0.0288,-0.29186 -0.19239,-0.45548 -0.17351,-0.17352 -0.22382,-0.19239 -0.51297,-0.19239 -0.37878,0 -0.50832,0.0585 -0.62377,0.28179 -0.16888,0.32656 -0.0701,0.79193 0.20972,0.98791 0.14442,0.10116 0.67151,0.12003 0.83962,0.03 z m -21.18443,-3.97793 c 0.14429,-0.15744 0.18863,-0.25608 0.18835,-0.41895 -8.3e-4,-0.40916 -0.35659,-0.74954 -0.78431,-0.75019 -0.21188,-2.8e-4 -0.27848,0.031 -0.46682,0.2193 -0.19333,0.19333 -0.21968,0.25182 -0.21968,0.48762 0,0.23722 0.026,0.29394 0.22666,0.49461 0.22095,0.22094 0.23472,0.22598 0.54687,0.2001 0.27996,-0.0232 0.34393,-0.0524 0.50893,-0.23249 z m 12.99486,-0.002 c 0.30747,-0.12847 0.37788,-0.23664 0.37788,-0.58055 0,-0.38685 -0.11273,-0.61291 -0.34623,-0.69431 -0.24949,-0.087 -0.4238,-0.0785 -0.65626,0.0318 -0.36228,0.17192 -0.50662,0.57712 -0.32836,0.92183 0.18962,0.36668 0.55193,0.48882 0.95297,0.32126 z m 6.76703,-3.40039 c 0.19377,-0.1002 0.34432,-0.39865 0.34432,-0.68256 0,-0.16884 -0.0433,-0.2536 -0.21968,-0.42997 -0.19243,-0.19243 -0.25244,-0.21968 -0.48377,-0.21968 -0.49444,0 -0.71115,0.21837 -0.71115,0.71661 0,0.22498 0.0286,0.28721 0.21968,0.4783 0.1849,0.1849 0.25702,0.21968 0.45548,0.21968 0.12969,0 0.30749,-0.0371 0.39512,-0.0824 z m -27.09726,-0.29696 c 0.22637,-0.15602 0.27767,-0.25563 0.27957,-0.54295 0.006,-0.85496 -0.84797,-1.13495 -1.26914,-0.41629 -0.16536,0.28217 -0.183,0.52165 -0.0522,0.70842 0.22621,0.32296 0.75305,0.4498 1.04175,0.25082 z m -7.00874,-2.6337 c 0.39115,-0.3165 0.35538,-0.94462 -0.068,-1.19474 -0.19843,-0.11722 -0.61312,-0.11947 -0.77765,-0.004 -0.18795,0.13165 -0.29529,0.38218 -0.29432,0.68691 10e-4,0.31969 0.0307,0.37729 0.25505,0.49426 0.2024,0.10553 0.76261,0.11681 0.88496,0.0178 z m 41.45592,-0.0933 c 0.43152,-0.23095 0.37215,-0.97694 -0.0971,-1.21958 -0.39094,-0.20216 -0.85507,-0.0317 -0.97148,0.35689 -0.0896,0.29916 -0.0291,0.57751 0.16645,0.76482 0.26403,0.25295 0.55361,0.28437 0.90209,0.0979 z m -20.4861,-2.86357 c 0.46186,-0.10889 0.93546,-0.35188 1.2825,-0.65801 0.4552,-0.40153 0.82539,-1.34237 0.82399,-2.09416 -0.002,-1.16075 -0.7827,-2.21424 -1.92318,-2.59574 -0.3123,-0.10446 -0.46643,-0.12007 -1.0215,-0.10342 -0.6208,0.0186 -0.67491,0.0301 -1.07509,0.22828 -0.4578,0.2267 -0.93311,0.64933 -1.19713,1.06446 -0.48163,0.75725 -0.51737,1.89879 -0.0861,2.74766 0.33355,0.65644 0.87668,1.15211 1.5125,1.38033 0.38396,0.13782 1.16871,0.15208 1.68395,0.0306 z m -13.49776,-1.93288 c 0.15677,-0.1396 0.27072,-0.42309 0.27072,-0.6735 0,-0.15828 -0.0442,-0.24973 -0.19239,-0.3979 -0.16942,-0.16942 -0.22747,-0.19239 -0.48637,-0.19239 -0.49226,0 -0.73608,0.22125 -0.73562,0.66753 5.5e-4,0.43215 0.38361,0.77506 0.8105,0.72532 0.11911,-0.0139 0.26904,-0.072 0.33316,-0.12906 z m 26.5466,-0.4167 c 0.29364,-0.34897 0.24541,-0.92505 -0.0948,-1.1325 -0.32649,-0.19907 -0.81957,-0.1104 -1.02614,0.18451 -0.11193,0.15981 -0.11389,0.56631 -0.004,0.77928 0.13126,0.25383 0.29837,0.34013 0.6586,0.34013 0.28887,0 0.33667,-0.0176 0.46612,-0.17142 z m -34.0838,-4.72343 c 0.33746,-0.17451 0.34641,-0.83098 0.0155,-1.13765 -0.11914,-0.1104 -0.20635,-0.13516 -0.4762,-0.13516 -0.28044,0 -0.35665,0.0235 -0.50448,0.1556 -0.32547,0.29084 -0.28135,0.87356 0.083,1.09572 0.21302,0.12991 0.65187,0.14059 0.88219,0.0215 z m 41.51102,-0.28662 c 0.16752,-0.17763 0.19058,-0.23875 0.19058,-0.50523 0,-0.26648 -0.0231,-0.3276 -0.19058,-0.50522 -0.17163,-0.18198 -0.2202,-0.20208 -0.48843,-0.20208 -0.26613,0 -0.3174,0.0207 -0.48151,0.19474 -0.47447,0.50309 -0.16252,1.21906 0.53142,1.21965 0.21114,1.4e-4 0.27623,-0.0298 0.43852,-0.20186 z m -7.1056,-2.40246 c 0.15712,-0.0841 0.27979,-0.35385 0.27979,-0.61527 0,-0.47672 -0.22814,-0.6854 -0.74693,-0.68322 -0.45836,0.002 -0.66766,0.22147 -0.66766,0.70035 0,0.20608 0.0344,0.29562 0.17561,0.45639 0.16415,0.18696 0.19763,0.20001 0.51297,0.20001 0.18555,0 0.38635,-0.0262 0.44622,-0.0583 z m -27.21461,-0.2557 c 0.46248,-0.23916 0.51684,-0.9436 0.0956,-1.23866 -0.16866,-0.11813 -0.6589,-0.11579 -0.82988,0.004 -0.1577,0.11046 -0.28953,0.40384 -0.28953,0.64431 0,0.52404 0.54471,0.83815 1.02382,0.59039 z m 6.76463,-3.42563 c 0.2434,-0.15042 0.30303,-0.26509 0.30303,-0.58269 0,-0.48391 -0.2186,-0.71368 -0.67901,-0.71368 -0.46108,0 -0.73559,0.27594 -0.73559,0.73944 0,0.19847 0.0348,0.27059 0.21968,0.45548 0.18626,0.18626 0.25626,0.21968 0.46014,0.21968 0.14513,0 0.3163,-0.0469 0.43175,-0.11823 z m 13.3437,-0.30804 c 0.16576,-0.16575 0.19989,-0.24071 0.19972,-0.43852 -1.5e-4,-0.13671 -0.0474,-0.31595 -0.11067,-0.41974 -0.38745,-0.63546 -1.30285,-0.33539 -1.3035,0.42729 -1.5e-4,0.20462 0.0322,0.27858 0.19217,0.43852 0.17271,0.17271 0.2246,0.19238 0.50737,0.19238 0.2851,0 0.33395,-0.019 0.51491,-0.19993 z m -21.50552,-3.67008 c 0.10385,-0.0434 0.23035,-0.13818 0.2811,-0.21063 0.105,-0.14992 0.12606,-0.67328 0.034,-0.84528 -0.14081,-0.2631 -0.70873,-0.36791 -1.01458,-0.18724 -0.23021,0.13599 -0.34176,0.36399 -0.34176,0.69857 0,0.24805 0.0252,0.31791 0.1654,0.45808 0.13496,0.13496 0.21339,0.1654 0.4262,0.1654 0.14344,0 0.34577,-0.0355 0.44962,-0.0789 z m 29.57786,-0.1229 c 0.30129,-0.1558 0.4281,-0.69354 0.2464,-1.04489 -0.10931,-0.21139 -0.35335,-0.33765 -0.6526,-0.33765 -0.19158,0 -0.27021,0.0354 -0.42719,0.19238 -0.17539,0.17539 -0.19227,0.22162 -0.19113,0.5234 10e-4,0.36815 0.0866,0.52328 0.36654,0.66734 0.217,0.11167 0.4413,0.11147 0.65798,-5.8e-4 z m -14.54893,-0.13789 c 0.27961,-0.14264 0.33914,-0.25484 0.33914,-0.63917 0,-0.37454 -0.13394,-0.57326 -0.45025,-0.66803 -0.49641,-0.14872 -0.90776,0.12645 -0.90776,0.60724 0,0.29535 0.10695,0.52937 0.31771,0.69515 0.18891,0.1486 0.41625,0.15016 0.70116,0.005 z m -6.10475,-4.97253 c 0.19811,-0.19811 0.21967,-0.24819 0.21967,-0.51008 0,-0.24987 -0.0262,-0.31895 -0.1874,-0.4949 -0.15529,-0.16945 -0.2353,-0.20905 -0.46682,-0.23107 -0.2236,-0.0213 -0.30905,-0.003 -0.42784,0.0906 -0.17664,0.13947 -0.33253,0.44654 -0.33253,0.65503 0,0.374 0.35747,0.70948 0.75639,0.70987 0.17892,1.5e-4 0.25893,-0.0399 0.43853,-0.21947 z m 11.90169,0.0714 c 0.15267,-0.0586 0.25716,-0.33694 0.25716,-0.68504 0,-0.39135 -0.09,-0.54614 -0.37166,-0.63909 -0.27462,-0.0906 -0.55409,-0.027 -0.78952,0.17968 -0.17988,0.15794 -0.19683,0.19959 -0.19683,0.48382 0,0.27826 0.0203,0.33128 0.19239,0.5034 0.1723,0.1723 0.22497,0.19238 0.50462,0.19238 0.17173,0 0.35346,-0.0158 0.40384,-0.0352 z"
       transform="translate(29.823847,-575.61402)" />
  </g>
</svg>
