<?xml version="1.0" encoding="UTF-8" standalone="no"?>
<!-- Created with Inkscape (http://www.inkscape.org/) -->

<svg
   width="160.59877mm"
   height="14.339209mm"
   viewBox="0 0 160.59877 14.339209"
   version="1.1"
   id="svg1"
   xml:space="preserve"
   inkscape:version="1.4.3 (0d15f75042, 2025-12-25)"
   sodipodi:docname="logo-cloudlesscomputer.svg"
   xmlns:inkscape="http://www.inkscape.org/namespaces/inkscape"
   xmlns:sodipodi="http://sodipodi.sourceforge.net/DTD/sodipodi-0.dtd"
   xmlns="http://www.w3.org/2000/svg"
   xmlns:svg="http://www.w3.org/2000/svg"><sodipodi:namedview
     id="namedview1"
     pagecolor="#ffffff"
     bordercolor="#000000"
     borderopacity="0.25"
     inkscape:showpageshadow="2"
     inkscape:pageopacity="0.0"
     inkscape:pagecheckerboard="0"
     inkscape:deskcolor="#d1d1d1"
     inkscape:document-units="mm"
     inkscape:zoom="2.5816919"
     inkscape:cx="388.50492"
     inkscape:cy="-9.4899008"
     inkscape:window-width="3072"
     inkscape:window-height="1658"
     inkscape:window-x="0"
     inkscape:window-y="0"
     inkscape:window-maximized="1"
     inkscape:current-layer="layer1" /><defs
     id="defs1" /><g
     inkscape:label="Layer 1"
     inkscape:groupmode="layer"
     id="layer1"
     transform="translate(-80.071243,-113.09695)"><path
       style="fill:#ffcc00;stroke-width:0.397492"
       d="m 89.997517,127.38174 c -0.05076,0 -0.303055,-0.28497 -0.560668,-0.63328 -0.297032,-0.40162 -0.605248,-0.69051 -0.842485,-0.78967 -0.205753,-0.0861 -0.50765,-0.15637 -0.670879,-0.15637 -0.163225,0 -0.442306,0.0663 -0.620175,0.14732 -0.177866,0.081 -0.558464,0.41641 -0.845768,0.74531 -0.287305,0.32891 -0.580487,0.58114 -0.651513,0.5605 -0.07442,-0.0217 -0.154574,-0.34927 -0.189194,-0.77353 -0.04197,-0.51455 -0.133876,-0.84123 -0.3054,-1.08568 -0.134933,-0.19233 -0.375005,-0.40173 -0.53349,-0.46534 -0.158491,-0.0637 -0.431784,-0.11567 -0.607319,-0.11567 -0.175533,0 -0.67464,0.13326 -1.109123,0.29612 -0.434481,0.16289 -0.817946,0.29614 -0.852137,0.29614 -0.03419,0 -0.06216,-0.0605 -0.06216,-0.13441 0,-0.074 0.151274,-0.42829 0.33616,-0.78751 0.18489,-0.35919 0.336162,-0.7895 0.336162,-0.95627 0,-0.16675 -0.0792,-0.43812 -0.176035,-0.60307 -0.108321,-0.18454 -0.356122,-0.36873 -0.644308,-0.47894 -0.257554,-0.0985 -0.783515,-0.21002 -1.168812,-0.24784 -0.385298,-0.0378 -0.725987,-0.10503 -0.757094,-0.14935 -0.03113,-0.0443 0.298401,-0.30803 0.732236,-0.586 0.468136,-0.29992 0.861646,-0.63995 0.967998,-0.83641 0.124797,-0.23053 0.155196,-0.44378 0.100113,-0.70235 -0.04412,-0.20721 -0.214087,-0.4847 -0.384585,-0.6279 -0.168028,-0.14112 -0.546629,-0.42841 -0.841333,-0.63841 -0.294701,-0.21 -0.493876,-0.41613 -0.442611,-0.45806 0.05126,-0.0418 0.489718,-0.10152 0.974344,-0.13238 0.507219,-0.0323 0.993955,-0.12127 1.14699,-0.20959 0.146222,-0.0842 0.348684,-0.26481 0.449922,-0.40092 0.101238,-0.1361 0.188818,-0.41311 0.194627,-0.61555 0.0059,-0.20453 -0.133228,-0.66565 -0.313039,-1.03782 -0.192949,-0.39934 -0.282208,-0.70416 -0.221079,-0.755 0.05866,-0.0489 0.462109,0.0591 0.942926,0.25245 0.647895,0.26038 0.943058,0.32732 1.288552,0.29224 0.327432,-0.0332 0.541801,-0.13551 0.795836,-0.3797 0.287936,-0.27677 0.370325,-0.46829 0.479413,-1.11436 0.07245,-0.42908 0.168966,-0.81296 0.214485,-0.85306 0.04551,-0.04 0.36011,0.24764 0.699092,0.63942 0.475378,0.5494 0.72055,0.74418 1.072045,0.85166 0.413936,0.12658 0.495809,0.12207 0.893048,-0.0493 0.2431,-0.10493 0.67611,-0.45175 0.974946,-0.78095 0.295685,-0.32574 0.579606,-0.6051 0.630937,-0.62079 0.05133,-0.0157 0.125234,0.11202 0.164235,0.28379 0.039,0.17177 0.0709,0.83978 0.0709,1.48447 0,0.64468 -0.04201,1.17215 -0.09337,1.17215 -0.05137,0 -0.127938,-0.0304 -0.170177,-0.0677 -0.04222,-0.0372 -0.264943,-0.12921 -0.4949,-0.20447 -0.229962,-0.0754 -0.90725,-0.1617 -1.505085,-0.19208 -0.840842,-0.0427 -1.221437,-0.0179 -1.680809,0.10983 -0.326608,0.0907 -0.818985,0.26318 -1.094172,0.38309 -0.275185,0.11993 -0.785075,0.46284 -1.133087,0.76201 -0.348013,0.29919 -0.770467,0.78336 -0.938788,1.07596 -0.168321,0.29261 -0.376427,0.73632 -0.462463,0.98602 -0.08603,0.2497 -0.156979,0.81842 -0.157647,1.26384 -8.45e-4,0.60008 0.06536,0.97081 0.255823,1.43126 0.141372,0.34177 0.432685,0.85043 0.647367,1.13035 0.21468,0.2799 0.641076,0.69223 0.947544,0.91627 0.306466,0.22405 0.809336,0.51274 1.11748,0.64155 0.30815,0.1288 0.878109,0.28905 1.266573,0.3561 0.398202,0.0687 1.035381,0.0975 1.460713,0.0662 0.41493,-0.0306 0.903881,-0.10904 1.086563,-0.17423 0.182683,-0.0651 0.445524,-0.16486 0.584098,-0.22152 0.138571,-0.0566 0.278123,-0.08 0.310112,-0.0518 0.03197,0.0281 0.0031,0.3799 -0.06483,0.78159 -0.06764,0.40169 -0.164005,1.00455 -0.214145,1.33969 -0.05013,0.33514 -0.124715,0.65716 -0.165728,0.71562 -0.04099,0.0584 -0.116094,0.10633 -0.166847,0.10633 z"
       id="path1" /><text
       xml:space="preserve"
       style="font-size:14.8167px;writing-mode:lr-tb;direction:ltr;fill:#ffcc00;stroke-width:0.264583"
       x="82.757843"
       y="124.35417"
       id="text1"><tspan
         sodipodi:role="line"
         id="tspan1"
         style="font-style:normal;font-variant:normal;font-weight:bold;font-stretch:normal;font-size:14.8167px;font-family:'DejaVu Sans';-inkscape-font-specification:'DejaVu Sans Bold';stroke-width:0.264583"
         x="82.757843"
         y="124.35417">cloudless<tspan
   style="font-style:normal;font-variant:normal;font-weight:bold;font-stretch:normal;font-size:14.8167px;font-family:'DejaVu Sans';-inkscape-font-specification:'DejaVu Sans Bold';fill:#000000"
   id="tspan2">computer</tspan></tspan></text></g></svg>
